<svg width="24" height="24" viewBox="0 0 24 24" fill="none" xmlns="http://www.w3.org/2000/svg">
<path d="M19 5L20 5C20 4.73478 19.8946 4.48043 19.7071 4.29289C19.5196 4.10536 19.2652 4 19 4V5ZM4.29289 18.2929C3.90237 18.6834 3.90237 19.3166 4.29289 19.7071C4.68342 20.0976 5.31658 20.0976 5.70711 19.7071L4.29289 18.2929ZM18 15.27C18 15.8223 18.4477 16.27 19 16.27C19.5523 16.27 20 15.8223 20 15.27H18ZM8.73 4C8.17771 4 7.73 4.44772 7.73 5C7.73 5.55229 8.17771 6 8.73 6L8.73 4ZM18.2929 4.29289L4.29289 18.2929L5.70711 19.7071L19.7071 5.70711L18.2929 4.29289ZM20 15.27L20 5L18 5L18 15.27H20ZM19 4L8.73 4L8.73 6L19 6V4Z" fill="#444E72"/>
</svg>
