<svg width="153" height="150" viewBox="0 0 153 150" fill="none" xmlns="http://www.w3.org/2000/svg">
<path d="M95.5251 22.485C95.3457 21.201 97.1828 20.145 98.5607 20.037C99.2177 19.986 99.9021 20.085 100.526 19.869C101.876 19.404 102.414 17.685 103.735 17.136C104.72 16.725 105.855 17.091 106.81 17.565C107.765 18.039 108.708 18.636 109.775 18.702C110.703 18.762 111.713 18.42 112.525 18.867C113.13 19.2 113.447 19.887 114.006 20.295C114.551 20.691 115.262 20.775 115.941 20.811C116.619 20.847 117.319 20.853 117.936 21.132C118.554 21.411 119.062 22.053 118.934 22.71L95.5251 22.485Z" fill="#F5F5F5"/>
<path d="M10.1916 37.923C10.0122 36.639 11.8493 35.583 13.2272 35.475C13.8842 35.424 14.5686 35.523 15.1921 35.307C16.5426 34.842 17.081 33.123 18.4011 32.574C19.3866 32.163 20.5211 32.529 21.4762 33.003C22.4313 33.477 23.3742 34.074 24.4418 34.14C25.3695 34.2 26.3794 33.858 27.1915 34.305C27.7968 34.638 28.1131 35.325 28.6728 35.733C29.2172 36.129 29.929 36.213 30.6073 36.249C31.2856 36.285 31.9852 36.291 32.6026 36.57C33.2201 36.849 33.728 37.491 33.6003 38.148L10.1916 37.923Z" fill="#F5F5F5"/>
<path d="M61.8634 51.4769C61.6018 49.5989 64.2876 48.0569 66.3042 47.8949C67.2654 47.8169 68.2661 47.9639 69.1786 47.6489C71.1527 46.9709 71.9435 44.4539 73.8689 43.6529C75.3106 43.0529 76.9683 43.5869 78.3644 44.2799C79.7606 44.9729 81.1415 45.8459 82.7019 45.9449C84.0584 46.0319 85.5336 45.5339 86.7199 46.1879C87.605 46.6739 88.0674 47.6819 88.8856 48.2729C89.6825 48.8519 90.7258 48.9749 91.7143 49.0289C92.7059 49.0829 93.7279 49.0919 94.6313 49.4999C95.5316 49.9079 96.2799 50.8469 96.0913 51.8069L61.8634 51.4769Z" fill="#CCCCCC"/>
<path d="M111.324 40.2059C111.096 38.5739 113.432 37.2299 115.187 37.0919C116.023 37.0259 116.893 37.1519 117.687 36.8789C119.405 36.2879 120.09 34.0979 121.769 33.4019C123.022 32.8799 124.464 33.3449 125.68 33.9479C126.894 34.5509 128.095 35.3099 129.455 35.3969C130.635 35.4719 131.919 35.0399 132.95 35.6099C133.72 36.0329 134.124 36.9089 134.833 37.4249C135.526 37.9289 136.433 38.0369 137.293 38.0819C138.154 38.1269 139.045 38.1359 139.83 38.4899C140.615 38.8439 141.263 39.6629 141.102 40.4969L111.324 40.2059Z" fill="#F5F5F5"/>
<path d="M48.7628 116.226L55.4453 144.846L52.6226 144.837L45.9219 116.496L48.7628 116.226Z" fill="#C0C0C0"/>
<path d="M36.5718 116.226L29.8649 144.846H27.1822L33.67 116.226H36.5718Z" fill="#C0C0C0"/>
<path d="M53.2739 94.731L49.4688 114.435H45.1466L49.2103 94.731H53.2739Z" fill="#C0C0C0"/>
<path d="M119.552 116.226L125.002 144.846H122.225L116.531 116.226H119.552Z" fill="#C0C0C0"/>
<path d="M108.087 116.226L101.855 144.69H99.1145L105.131 116.226H108.087Z" fill="#C0C0C0"/>
<path d="M124.062 94.731L120.257 114.435H115.932L119.996 94.731H124.062Z" fill="#C0C0C0"/>
<path d="M132.622 92.9399L131.843 96.5219H45.0155L46.0314 92.9399H132.622Z" fill="#CCCCCC"/>
<path d="M130.964 99.897L130.045 103.479H43.8049L44.5897 99.897H130.964Z" fill="#CCCCCC"/>
<path d="M129.249 107.1L128.397 110.682H42.4242L43.2363 107.1H129.249Z" fill="#CCCCCC"/>
<path d="M29.9713 114.435H122.678V118.017H29.9713V114.435Z" fill="#CCCCCC"/>
<path d="M133.99 129.18C133.166 129.354 132.467 129.936 132.032 130.65C131.597 131.361 131.399 132.195 131.329 133.026C131.189 134.631 131.773 136.392 132.491 137.838C134.063 136.95 134.781 135 135.082 133.989C135.554 132.387 135.429 129.213 133.99 129.18Z" fill="#CCCCCC"/>
<path d="M130.405 140.118C130.8 139.275 130.624 138.228 130.055 137.484C129.489 136.74 128.576 136.293 127.64 136.182C127.208 136.131 126.721 136.161 126.408 136.458C126.113 136.737 126.049 137.193 126.161 137.58C126.277 137.967 126.542 138.291 126.84 138.567C127.856 139.515 129.014 140.247 130.405 140.118Z" fill="#CCCCCC"/>
<path d="M131.253 144.06C131.274 144.06 131.298 143.655 131.28 142.995C131.271 142.665 131.213 142.266 131.095 141.846C130.976 141.429 130.854 140.964 130.651 140.496C130.258 139.557 129.65 138.822 129.121 138.414C128.856 138.207 128.619 138.075 128.451 137.991C128.281 137.913 128.184 137.88 128.178 137.892C128.162 137.922 128.543 138.087 129.038 138.513C129.531 138.936 130.1 139.656 130.483 140.568C130.678 141.021 130.806 141.48 130.933 141.894C131.058 142.308 131.128 142.683 131.152 143.007C131.204 143.655 131.225 144.063 131.253 144.06Z" fill="#C0C0C0"/>
<path d="M133.869 131.607C133.856 131.604 133.799 131.787 133.707 132.123C133.616 132.456 133.491 132.942 133.339 133.545C133.038 134.748 132.646 136.413 132.254 138.261C131.864 140.112 131.557 141.795 131.362 143.019C131.265 143.631 131.192 144.126 131.149 144.471C131.104 144.816 131.086 145.005 131.098 145.008C131.11 145.011 131.152 144.822 131.219 144.483C131.289 144.111 131.381 143.625 131.49 143.043C131.718 141.825 132.044 140.148 132.433 138.3C132.834 136.47 133.193 134.814 133.467 133.575C133.592 132.993 133.698 132.513 133.777 132.141C133.847 131.799 133.881 131.61 133.869 131.607Z" fill="#C0C0C0"/>
<path d="M132.305 141.12C133.245 139.392 135.079 138.171 137.053 137.955C137.555 137.901 138.167 137.961 138.41 138.399C138.653 138.837 138.373 139.38 138.042 139.758C136.673 141.339 134.276 141.963 132.293 141.255" fill="#CCCCCC"/>
<path d="M136.271 139.197C136.268 139.185 136.168 139.2 135.985 139.236C135.803 139.272 135.547 139.338 135.231 139.428C134.608 139.623 133.726 139.932 132.923 140.562C132.524 140.877 132.199 141.243 131.958 141.609C131.718 141.978 131.578 142.347 131.478 142.659C131.39 142.974 131.338 143.235 131.323 143.418C131.304 143.601 131.298 143.7 131.31 143.7C131.347 143.706 131.39 143.304 131.599 142.698C131.712 142.398 131.858 142.047 132.098 141.699C132.335 141.351 132.649 141.003 133.035 140.703C133.808 140.097 134.665 139.776 135.271 139.551C135.888 139.335 136.277 139.224 136.271 139.197Z" fill="#C0C0C0"/>
<path d="M121.75 13.5179C121.753 13.5269 121.86 13.4909 122.061 13.4489C122.258 13.4099 122.553 13.3769 122.909 13.4279C123.262 13.4789 123.679 13.6199 124.044 13.9169C124.409 14.2109 124.719 14.6519 124.844 15.1739L124.847 15.1889L124.895 15.3749L124.968 15.1979C125.172 14.6999 125.534 14.3039 125.927 14.0519C126.322 13.7939 126.745 13.6859 127.101 13.6589C127.822 13.6109 128.244 13.8329 128.25 13.8029C128.253 13.7969 128.153 13.7399 127.958 13.6769C127.764 13.6139 127.466 13.5539 127.095 13.5689C126.727 13.5839 126.279 13.6889 125.863 13.9529C125.446 14.2109 125.063 14.6249 124.85 15.1499L124.972 15.1589L124.968 15.1439C124.838 14.5919 124.506 14.1269 124.117 13.8239C123.727 13.5149 123.286 13.3739 122.918 13.3349C122.547 13.2929 122.246 13.3439 122.045 13.3979C121.848 13.4579 121.747 13.5119 121.75 13.5179Z" fill="#C0C0C0"/>
<path d="M80.4752 33.2579C80.4691 33.2669 80.5756 33.3749 80.7551 33.5789C80.9376 33.7829 81.187 34.0919 81.4455 34.5029C81.9687 35.3159 82.4888 36.6089 82.4706 38.0939C82.4706 38.1089 82.4706 38.1239 82.4706 38.1389L82.5983 38.1479C82.8173 36.6869 83.5929 35.5259 84.2743 34.8539C84.9586 34.1669 85.5183 33.8999 85.5001 33.8759C85.497 33.8729 85.4636 33.8879 85.3997 33.9209C85.3358 33.9569 85.2385 34.0019 85.1259 34.0769C84.8917 34.2179 84.5693 34.4519 84.2134 34.7909C83.8576 35.1299 83.4834 35.5829 83.1641 36.1499C82.8447 36.7139 82.5892 37.3919 82.4766 38.1329L82.6044 38.1419C82.6044 38.1269 82.6044 38.1119 82.6044 38.0969C82.6226 36.5819 82.0751 35.2679 81.5276 34.4579C81.2539 34.0469 80.9923 33.7439 80.7976 33.5489C80.7033 33.4469 80.6212 33.3809 80.5665 33.3299C80.5087 33.2789 80.4783 33.2549 80.4752 33.2579Z" fill="#C0C0C0"/>
<path d="M12.9535 144.846C12.9535 144.888 41.2623 144.924 76.1776 144.924C111.102 144.924 139.408 144.888 139.408 144.846C139.408 144.804 111.105 144.768 76.1776 144.768C41.2653 144.768 12.9535 144.801 12.9535 144.846Z" fill="#263238"/>
<path d="M89.4786 26.676C89.4817 26.688 89.6976 26.601 90.1052 26.511C90.5098 26.424 91.1181 26.346 91.8572 26.445C92.5903 26.541 93.4571 26.832 94.2176 27.45C94.9749 28.056 95.6228 28.971 95.8844 30.057C95.8874 30.066 95.8905 30.078 95.8905 30.087L95.9391 30.273L96.0121 30.096C96.4349 29.064 97.1893 28.242 98.0075 27.72C98.8257 27.189 99.7078 26.97 100.444 26.919C101.183 26.868 101.782 26.973 102.184 27.075C102.585 27.18 102.798 27.27 102.801 27.261C102.804 27.258 102.749 27.231 102.649 27.189C102.549 27.144 102.397 27.087 102.196 27.03C101.797 26.91 101.189 26.79 100.438 26.832C99.6895 26.871 98.7861 27.087 97.9436 27.624C97.1041 28.152 96.3315 28.989 95.8966 30.048L96.0182 30.057C96.0152 30.048 96.0121 30.036 96.0091 30.027C95.7414 28.911 95.0753 27.972 94.2936 27.357C93.5119 26.73 92.6176 26.442 91.8724 26.355C91.1211 26.265 90.5037 26.358 90.0991 26.463C89.8954 26.514 89.7402 26.565 89.6368 26.607C89.5304 26.649 89.4756 26.673 89.4786 26.676Z" fill="#263238"/>
<path d="M71.9738 17.202C71.9768 17.211 72.0985 17.169 72.3205 17.121C72.5426 17.076 72.8772 17.037 73.2787 17.094C73.6771 17.148 74.1486 17.31 74.5623 17.646C74.9729 17.976 75.3257 18.477 75.4656 19.068L75.4687 19.083L75.5173 19.269L75.5903 19.092C75.8215 18.531 76.2291 18.084 76.6762 17.796C77.1203 17.505 77.6009 17.382 78.0024 17.355C78.4069 17.325 78.7354 17.379 78.9544 17.433C79.1765 17.487 79.292 17.535 79.2981 17.523C79.3012 17.52 79.2708 17.505 79.216 17.478C79.1613 17.451 79.0791 17.418 78.9666 17.385C78.7476 17.316 78.413 17.247 77.9963 17.265C77.5826 17.283 77.0808 17.4 76.6123 17.7C76.147 17.991 75.715 18.456 75.4748 19.044L75.5964 19.053L75.5934 19.035C75.4443 18.414 75.0733 17.895 74.6383 17.553C74.2033 17.205 73.7076 17.049 73.2939 17.001C72.8772 16.953 72.5365 17.01 72.3145 17.07C72.2019 17.1 72.1168 17.13 72.062 17.154C71.9981 17.184 71.9708 17.199 71.9738 17.202Z" fill="#263238"/>
<path d="M83.4168 13.326C83.4077 13.335 83.5354 13.461 83.7544 13.701C83.9704 13.941 84.2685 14.307 84.5757 14.796C85.1962 15.759 85.8167 17.292 85.7954 19.053C85.7954 19.071 85.7954 19.089 85.7954 19.107L85.9231 19.116C86.0539 18.258 86.3459 17.469 86.714 16.809C87.079 16.149 87.5109 15.612 87.9154 15.207C88.32 14.802 88.6911 14.517 88.9587 14.337C89.2233 14.157 89.3785 14.064 89.3724 14.055C89.3693 14.052 89.3298 14.07 89.2538 14.112C89.1808 14.154 89.0652 14.208 88.9313 14.298C88.6546 14.466 88.2713 14.745 87.8546 15.147C87.4348 15.549 86.9908 16.086 86.6136 16.755C86.2364 17.421 85.9353 18.222 85.8015 19.098L85.9292 19.107C85.9292 19.089 85.9292 19.071 85.9292 19.053C85.9505 17.262 85.3057 15.708 84.6578 14.745C84.3354 14.259 84.0251 13.899 83.797 13.665C83.6875 13.545 83.5871 13.464 83.5263 13.404C83.4563 13.35 83.4198 13.323 83.4168 13.326Z" fill="#263238"/>
<path d="M46.2476 119.502C45.0461 127.929 43.8477 136.359 42.6462 144.786L41.7094 144.816C42.3086 136.227 42.9443 127.47 46.2476 119.502Z" fill="#455A64"/>
<path d="M36.2492 118.317C38.7646 121.035 39.7745 124.77 40.4132 128.397C41.3166 133.536 41.3987 139.608 41.128 144.816L39.814 144.846C40.3463 135.846 39.1114 126.879 36.2492 118.317Z" fill="#455A64"/>
<path d="M45.5873 134.46C45.8763 133.209 46.2078 131.934 46.9317 130.866C47.9111 129.426 49.508 128.514 51.111 127.803C52.717 127.092 54.4051 126.525 55.856 125.544C54.2378 128.16 50.5635 128.859 48.6928 131.307C47.7621 132.525 47.3758 134.052 47.0108 135.534C46.2169 138.765 45.7272 141.564 44.9303 144.795H43.8657C44.2185 141.285 44.7934 137.901 45.5873 134.46Z" fill="#455A64"/>
<path d="M38.853 144.816C38.853 144.816 37.9527 134.775 37.2835 132.93C36.6144 131.085 30.2968 125.991 30.3577 126.231C30.4185 126.471 35.0966 132.045 35.7657 133.182C36.4349 134.322 37.5877 144.813 37.5877 144.813H38.853V144.816Z" fill="#455A64"/>
<path d="M117.474 66.987C117.532 67.152 116.973 78.432 116.173 79.536C115.373 80.64 107.297 84.234 107.297 84.234L105.137 80.088L112.176 76.38L114.335 66.285L117.474 66.987Z" fill="#FFBE9D"/>
<path d="M103.404 79.7671L109.189 77.9551L110.494 82.9711L106.728 84.8431L103.404 79.7671Z" fill="#B3C9DE"/>
<path d="M105.445 112.719C105.566 112.899 109.852 120.282 110.275 121.53C110.698 122.781 110.938 142.311 110.938 142.311L106.111 142.023C106.111 142.023 104.058 132.786 103.997 129.867C103.936 126.951 103.997 124.032 103.997 124.032L97.2353 115.041L105.445 112.719Z" fill="#FFBE9D"/>
<path d="M95.3281 115.989C95.3281 115.989 92.913 124.74 91.7663 125.814C90.6196 126.885 75.1649 133.674 75.1649 133.434C75.1649 133.197 73.7049 129.126 73.7049 129.126C73.7049 129.126 82.6505 122.775 83.496 122.298C84.3416 121.821 86.8753 120.69 86.8753 120.69L87.8426 114.558L95.3281 115.989Z" fill="#FFBE9D"/>
<path d="M101.001 106.578C101.001 106.758 95.2644 122.598 95.2644 122.598L85.2421 118.503C85.2421 118.503 87.0397 112.056 87.718 110.121C88.5301 107.796 88.8465 104.727 89.7468 103.833C90.6471 102.939 91.1612 102.057 91.1612 102.057L101.001 106.578Z" fill="#455A64"/>
<path d="M104.493 106.524C104.435 106.674 110.02 118.401 110.02 118.401L99.8877 121.599L96.9647 116.091L98.5859 108.135L104.493 106.524Z" fill="#455A64"/>
<path d="M85.2452 118.503C85.2421 118.509 85.3121 118.539 85.4429 118.599C85.5889 118.662 85.7805 118.743 86.0208 118.845C86.5409 119.058 87.2679 119.358 88.1621 119.727C89.9932 120.465 92.5056 121.476 95.3009 122.601L95.377 122.631L95.4043 122.553C95.453 122.415 95.5047 122.265 95.5564 122.115C96.5571 119.193 97.4636 116.55 98.1266 114.618C98.443 113.667 98.7015 112.893 98.8871 112.341C98.9692 112.083 99.0361 111.876 99.0878 111.72C99.1304 111.576 99.1517 111.501 99.1486 111.501C99.1456 111.501 99.1121 111.573 99.0604 111.711C99.0026 111.864 98.9266 112.068 98.8323 112.323C98.6346 112.872 98.3608 113.643 98.0232 114.585C97.351 116.514 96.4294 119.151 95.4104 122.067C95.3587 122.217 95.307 122.364 95.2584 122.505L95.3618 122.457C92.5604 121.35 90.0419 120.354 88.2047 119.628C87.3044 119.28 86.5683 118.995 86.0451 118.794C85.8018 118.704 85.6041 118.629 85.4551 118.575C85.3182 118.521 85.2452 118.5 85.2452 118.503Z" fill="#263238"/>
<path d="M89.1751 108.72C89.166 108.735 89.4306 108.906 89.9173 109.05C90.3979 109.194 91.1187 109.281 91.8822 109.119C92.6456 108.957 93.2631 108.585 93.6433 108.255C94.0266 107.928 94.1969 107.661 94.1817 107.652C94.1604 107.634 93.9627 107.871 93.5734 108.168C93.1871 108.465 92.5848 108.807 91.8487 108.963C91.1157 109.119 90.4222 109.053 89.9477 108.939C89.4641 108.831 89.1873 108.696 89.1751 108.72Z" fill="#263238"/>
<path d="M103.86 108.849C103.827 108.87 104.134 109.299 104.721 109.557C105.305 109.821 105.837 109.764 105.828 109.725C105.831 109.677 105.329 109.662 104.785 109.416C104.237 109.176 103.897 108.816 103.86 108.849Z" fill="#263238"/>
<path d="M106.899 62.583C106.211 60.555 103.778 60.273 101.865 60.177C99.9515 60.081 98.0109 60.786 96.6148 62.076C94.0476 64.446 93.4788 68.427 90.8052 70.68C89.9992 71.358 89.0228 71.856 88.3627 72.675C87.5415 73.695 87.3347 75.063 87.2525 76.362C87.1674 77.661 87.1704 79.002 86.6716 80.208C86.1727 81.414 85.0078 82.47 83.6877 82.377C83.3562 82.353 83.0277 82.26 82.6992 82.299C82.3707 82.338 82.027 82.572 82.0209 82.899C82.0178 83.136 82.1882 83.337 82.3615 83.499C82.8786 83.982 83.5204 84.339 84.2078 84.528C84.4694 84.6 84.7614 84.666 84.9105 84.888C85.099 85.167 84.9439 85.572 84.6702 85.77C84.3964 85.971 84.0405 86.019 83.7029 86.061C86.2427 87.651 89.6463 88.236 92.253 86.757C94.0598 85.728 95.2156 83.898 96.6543 82.41C99.5165 79.446 105.606 80.433 108.164 77.211C110.947 73.707 111.592 63.552 106.899 62.583Z" fill="#263238"/>
<path d="M108.854 66.681C108.751 64.455 106.36 62.196 104.112 62.394L96.8064 63.639L96.8094 64.836L97.0041 79.65C97.0041 79.65 97.5486 84.435 101.637 84.231C105.311 84.048 105.174 80.22 105.174 80.217L105.11 77.424C105.11 77.424 108.076 77.355 108.736 73.662C109.067 71.823 108.97 69.153 108.854 66.681Z" fill="#FFBE9D"/>
<path d="M107.212 69.84C107.218 70.092 107.005 70.302 106.74 70.311C106.476 70.32 106.257 70.125 106.251 69.873C106.245 69.621 106.457 69.411 106.722 69.402C106.987 69.393 107.206 69.588 107.212 69.84Z" fill="#263238"/>
<path d="M108.158 68.64C108.097 68.7 107.738 68.43 107.218 68.421C106.701 68.406 106.314 68.664 106.26 68.598C106.232 68.571 106.296 68.46 106.464 68.343C106.628 68.226 106.908 68.118 107.233 68.124C107.555 68.13 107.826 68.253 107.978 68.376C108.136 68.499 108.188 68.613 108.158 68.64Z" fill="#263238"/>
<path d="M102.695 69.648C102.701 69.9 102.488 70.11 102.224 70.119C101.959 70.128 101.74 69.933 101.734 69.681C101.728 69.429 101.941 69.219 102.205 69.21C102.47 69.204 102.692 69.399 102.695 69.648Z" fill="#263238"/>
<path d="M103.389 68.64C103.328 68.7 102.966 68.43 102.449 68.421C101.932 68.406 101.545 68.664 101.491 68.598C101.463 68.571 101.527 68.46 101.694 68.343C101.859 68.226 102.138 68.118 102.461 68.124C102.783 68.13 103.054 68.253 103.206 68.376C103.364 68.499 103.416 68.613 103.389 68.64Z" fill="#263238"/>
<path d="M104.882 72.381C104.879 72.357 105.204 72.312 105.727 72.264C105.861 72.255 105.986 72.234 106.01 72.159C106.044 72.078 105.992 71.961 105.931 71.829C105.812 71.559 105.691 71.277 105.56 70.983C105.42 70.674 104.742 68.937 104.736 68.772C104.794 68.754 105.259 69.717 105.77 70.92C105.895 71.217 106.01 71.499 106.123 71.772C106.168 71.898 106.254 72.042 106.181 72.207C106.144 72.288 106.044 72.348 105.958 72.366C105.873 72.387 105.797 72.387 105.733 72.39C105.21 72.405 104.885 72.405 104.882 72.381Z" fill="#263238"/>
<path d="M105.137 77.445C105.137 77.445 102.607 77.562 100.131 76.038C100.131 76.038 101.372 78.645 105.137 78.363V77.445Z" fill="#EB996E"/>
<path d="M103.328 72.399C103.413 72.396 103.404 72.951 103.878 73.353C104.353 73.755 104.952 73.704 104.955 73.782C104.961 73.818 104.818 73.887 104.566 73.89C104.316 73.893 103.957 73.809 103.665 73.563C103.376 73.317 103.255 72.993 103.239 72.765C103.224 72.531 103.288 72.396 103.328 72.399Z" fill="#263238"/>
<path d="M103.486 66.912C103.422 67.068 102.981 66.945 102.439 66.972C101.898 66.984 101.448 67.143 101.393 66.99C101.369 66.918 101.46 66.774 101.652 66.636C101.84 66.498 102.132 66.378 102.455 66.366C102.78 66.354 103.063 66.453 103.245 66.576C103.428 66.702 103.513 66.84 103.486 66.912Z" fill="#263238"/>
<path d="M108.155 66.9512C108.067 67.0952 107.683 66.9722 107.233 66.9902C106.783 66.9902 106.406 67.1282 106.312 66.9902C106.269 66.9212 106.321 66.7802 106.482 66.6422C106.64 66.5042 106.908 66.3812 107.218 66.3752C107.528 66.3692 107.802 66.4772 107.969 66.6092C108.134 66.7412 108.194 66.8792 108.155 66.9512Z" fill="#263238"/>
<path d="M95.2432 66.015L95.4013 66.024C95.3709 65.091 95.4774 64.176 95.8576 63.333C96.5389 61.824 98.0111 60.828 99.5593 60.453C101.104 60.078 102.726 60.252 104.283 60.576C105.016 60.729 105.871 61.041 106.056 61.806C106.151 62.199 106.032 62.613 105.877 62.982C105.147 64.707 103.516 65.97 101.737 66.192C101.333 66.243 100.898 66.252 100.56 66.489C100.143 66.78 99.8756 67.269 99.7144 67.782C99.6627 67.983 99.6201 68.211 99.5897 68.472C99.5106 69.141 99.5623 69.828 99.3646 70.47C99.1213 71.268 98.3578 71.892 98.3213 72.726C98.2635 74.058 100.064 74.916 100.034 76.248C100.022 76.83 99.6536 77.334 99.3524 77.832C99.0513 78.33 98.8019 78.945 99.0361 79.479C99.1578 79.755 99.392 79.968 99.5441 80.229C100.04 81.078 99.4528 82.263 98.5221 82.602C97.5913 82.941 96.5085 82.572 95.7876 81.897C95.0667 81.225 94.647 80.298 94.3276 79.371C92.8159 75.036 93.1596 70.11 95.2432 66.015Z" fill="#263238"/>
<path d="M82.0573 79.536C82.0542 79.536 82.0603 79.56 82.0785 79.608C82.0907 79.656 82.1211 79.725 82.1698 79.812C82.2641 79.983 82.4618 80.217 82.8055 80.385C83.1431 80.547 83.6268 80.655 84.156 80.52C84.6853 80.385 85.2023 79.983 85.5613 79.416C85.9293 78.852 86.1331 78.126 86.2183 77.355C86.3125 76.581 86.3034 75.75 86.4585 74.901C86.5376 74.478 86.6593 74.052 86.86 73.65C87.0608 73.251 87.3528 72.888 87.73 72.612C88.4813 72.042 89.4576 71.769 90.3367 71.226C90.7747 70.953 91.1549 70.596 91.453 70.197C91.751 69.795 91.9761 69.357 92.1617 68.916C92.5297 68.031 92.7548 67.14 93.0438 66.324C93.1867 65.916 93.3449 65.52 93.5335 65.16C93.719 64.797 93.9684 64.482 94.2087 64.182C94.7106 63.594 95.252 63.108 95.766 62.697C96.8002 61.872 97.7462 61.347 98.4214 61.044C98.759 60.891 99.0328 60.795 99.2183 60.735C99.3035 60.708 99.3735 60.687 99.4313 60.669C99.4799 60.654 99.5043 60.645 99.5012 60.642C99.5012 60.642 99.0875 60.702 98.3971 60.99C97.7097 61.278 96.7485 61.794 95.6961 62.613C95.1729 63.024 94.6224 63.51 94.1083 64.101C93.8589 64.404 93.6034 64.722 93.4088 65.097C93.211 65.466 93.0498 65.865 92.9038 66.276C92.6088 67.101 92.3807 67.989 92.0157 68.859C91.8332 69.291 91.6142 69.72 91.3222 70.107C91.0332 70.494 90.6713 70.833 90.2485 71.097C89.3998 71.622 88.4143 71.898 87.6326 72.492C87.2403 72.78 86.927 73.167 86.7201 73.584C86.5103 74.001 86.3886 74.442 86.3095 74.874C86.1544 75.741 86.1696 76.575 86.0814 77.34C86.0053 78.105 85.8107 78.807 85.4609 79.356C85.1202 79.908 84.6275 80.298 84.1286 80.433C83.6268 80.568 83.1583 80.475 82.8268 80.325C82.4922 80.172 82.2945 79.953 82.1941 79.791C82.0907 79.635 82.0694 79.533 82.0573 79.536Z" fill="#263238"/>
<path d="M92.7393 97.656C93.4602 95.439 94.6586 89.232 94.8715 86.64C95.0845 84.045 96.7878 77.859 99.1116 77.976C99.136 77.976 99.1573 77.979 99.1816 77.979C105.131 78.204 107.272 82.23 107.777 87.06L107.756 90.264C107.777 94.71 106.688 101.532 106.527 103.893C106.354 106.446 105.755 108.063 105.755 108.063C105.755 108.063 100.632 108.867 98.044 107.778C95.4556 106.689 93.4207 106.941 91.9363 105.813C90.452 104.685 89.2658 103.302 89.2658 103.302C89.2658 103.302 92.0185 99.873 92.7393 97.656Z" fill="#B3C9DE"/>
<g opacity="0.3">
<path d="M98.0561 84.285C101.42 87.306 102.759 92.277 106.624 94.641L107.54 95.169C106.682 96.447 104.815 96.948 103.419 96.27C102.491 95.82 101.84 94.965 101.232 94.14C100.158 92.688 99.0872 91.212 98.4059 89.547C97.7246 87.882 97.463 85.983 98.0561 84.285Z" fill="black"/>
</g>
<path d="M98.6341 78.204C98.7679 78.201 102.269 78.204 103.638 80.046C104.848 81.669 107.114 87.324 107.114 87.324L99.7382 90.429C99.7382 90.429 98.0318 87.054 97.3201 84.843C96.5201 82.338 97.1072 78.246 98.6341 78.204Z" fill="#B3C9DE"/>
<path d="M114.004 87.522L107.589 90.219L105.965 87.81L100.547 90.09C100.547 90.09 102.856 95.613 105.381 96.027C107.905 96.441 116.318 89.7 116.318 89.7L114.004 87.522Z" fill="#FFBE9D"/>
<path d="M115.427 83.3309C115.427 83.3309 116.446 83.0369 116.489 84.1259C116.489 84.1259 117.55 83.9579 117.55 84.9629C117.55 84.9629 118.527 85.0889 118.356 85.9679C118.356 85.9679 119.12 86.4689 118.779 87.3479C118.438 88.2269 116.318 89.6999 116.318 89.6999L114.004 87.5219C114.004 87.5219 114.071 85.5479 114.198 85.2959C114.323 85.0469 115.427 83.3309 115.427 83.3309Z" fill="#FFBE9D"/>
<path d="M97.0618 84.234C97.0587 84.237 97.0709 84.276 97.1013 84.354C97.1378 84.444 97.1804 84.558 97.2382 84.696C97.369 85.008 97.5454 85.44 97.7705 85.977C98.2419 87.087 98.902 88.635 99.6776 90.456L99.705 90.522L99.7719 90.495C101.083 89.946 102.543 89.334 104.079 88.689C105.153 88.236 106.193 87.798 107.148 87.393L107.215 87.363L107.187 87.297C106.299 85.128 105.469 83.286 104.815 82.005C104.486 81.366 104.21 80.865 103.994 80.538C103.893 80.37 103.799 80.25 103.738 80.166C103.677 80.085 103.644 80.043 103.641 80.046C103.629 80.055 103.756 80.226 103.951 80.565C104.152 80.901 104.413 81.408 104.73 82.05C105.359 83.337 106.172 85.185 107.048 87.354L107.087 87.258C106.129 87.66 105.092 88.095 104.015 88.548C102.479 89.196 101.022 89.814 99.7141 90.366L99.8084 90.405C99.0115 88.593 98.3332 87.051 97.8496 85.947C97.6093 85.416 97.4176 84.99 97.2808 84.681C97.2169 84.546 97.1652 84.435 97.1256 84.348C97.0861 84.27 97.0648 84.234 97.0618 84.234Z" fill="#263238"/>
<path d="M96.8063 82.674C96.8307 82.674 96.8459 82.287 96.9037 81.666C96.9676 81.057 97.0831 80.166 97.6519 79.407C97.9318 79.032 98.2998 78.759 98.68 78.615C99.0602 78.471 99.4374 78.435 99.7476 78.444C100.374 78.468 100.745 78.627 100.751 78.597C100.754 78.588 100.669 78.54 100.499 78.483C100.329 78.426 100.076 78.357 99.7537 78.336C99.4313 78.312 99.0359 78.336 98.6283 78.483C98.2207 78.627 97.8192 78.921 97.5242 79.317C97.2261 79.713 97.0497 80.154 96.9463 80.562C96.8428 80.97 96.8063 81.348 96.7911 81.663C96.7759 81.978 96.7759 82.233 96.782 82.407C96.7881 82.578 96.7972 82.674 96.8063 82.674Z" fill="#263238"/>
<path d="M105.575 80.781C105.551 80.796 105.834 81.195 106.208 81.882C106.582 82.569 107.026 83.559 107.33 84.711C107.632 85.863 107.735 86.94 107.747 87.72C107.759 88.5 107.711 88.983 107.741 88.986C107.753 88.986 107.771 88.866 107.799 88.65C107.829 88.431 107.851 88.113 107.86 87.72C107.875 86.934 107.79 85.839 107.482 84.672C107.172 83.505 106.707 82.509 106.305 81.831C106.105 81.492 105.928 81.225 105.794 81.048C105.664 80.868 105.584 80.775 105.575 80.781Z" fill="#263238"/>
<path d="M76.4573 133.194L76.1836 133.35C76.1836 133.35 76.947 139.005 76.0893 139.551L70.8911 130.371L74.0605 128.79C74.1882 130.506 74.9274 131.973 76.4573 133.194Z" fill="#B3C9DE"/>
<g opacity="0.6">
<path d="M73.5953 130.263C73.4462 130.113 73.1725 130.101 73.0143 130.242C72.8561 130.383 72.8409 130.656 72.99 130.809C73.136 130.962 73.4645 130.986 73.6044 130.827C73.7473 130.668 73.7443 130.347 73.5648 130.233" fill="white"/>
</g>
<g opacity="0.6">
<path d="M70.8909 130.368L71.6544 129.987L76.3568 138.924C76.3568 138.924 76.4085 139.431 76.0891 139.548L70.8909 130.368Z" fill="white"/>
</g>
<path d="M76.1745 133.395C76.1288 133.419 75.9798 133.206 75.7091 133.065C75.4414 132.918 75.1798 132.912 75.1738 132.861C75.1586 132.816 75.4688 132.732 75.7943 132.906C76.1228 133.08 76.2201 133.383 76.1745 133.395Z" fill="#263238"/>
<path d="M76.3143 134.58C76.2747 134.613 76.0892 134.463 75.8094 134.418C75.5326 134.364 75.3014 134.439 75.2801 134.394C75.2497 134.355 75.4991 134.178 75.8428 134.241C76.1896 134.304 76.3569 134.556 76.3143 134.58Z" fill="#263238"/>
<path d="M75.4568 135.771C75.4233 135.735 75.6149 135.549 75.9313 135.525C76.2445 135.501 76.4635 135.657 76.4362 135.699C76.4118 135.744 76.202 135.681 75.9434 135.705C75.6849 135.72 75.4872 135.813 75.4568 135.771Z" fill="#263238"/>
<path d="M76.0985 133.17C76.1046 133.176 76.1837 133.104 76.2932 132.951C76.3997 132.795 76.5335 132.549 76.6065 132.216C76.6247 132.129 76.6308 132.036 76.6187 131.937C76.6065 131.841 76.5639 131.724 76.4574 131.655C76.354 131.583 76.2111 131.586 76.0985 131.637C75.9829 131.691 75.9008 131.787 75.843 131.892C75.6088 132.318 75.7335 132.912 76.1198 133.293C76.5152 133.674 77.0445 133.794 77.4977 133.8C77.5585 133.8 77.6224 133.794 77.6863 133.767C77.7502 133.74 77.811 133.68 77.8292 133.608C77.8657 133.464 77.7806 133.338 77.6893 133.275C77.4977 133.158 77.3182 133.125 77.1479 133.089C76.8072 133.032 76.5244 133.071 76.3388 133.119C76.1533 133.167 76.062 133.218 76.0651 133.227C76.0681 133.26 76.4757 133.071 77.1266 133.2C77.2817 133.236 77.4703 133.284 77.6133 133.38C77.6802 133.428 77.7167 133.506 77.6984 133.572C77.6832 133.632 77.6011 133.659 77.4977 133.659C77.0749 133.647 76.5822 133.524 76.2324 133.185C75.8917 132.849 75.7822 132.324 75.9738 131.964C76.0194 131.877 76.0833 131.802 76.1594 131.766C76.2354 131.73 76.3267 131.727 76.3875 131.769C76.5152 131.85 76.5213 132.057 76.497 132.201C76.3753 132.837 76.0681 133.155 76.0985 133.17Z" fill="#263238"/>
<path d="M110.956 141.345L110.965 141.657C110.965 141.657 116.379 143.664 116.461 144.669L105.803 144.849L105.889 141.348C107.482 142.047 109.143 142.098 110.956 141.345Z" fill="#B3C9DE"/>
<g opacity="0.6">
<path d="M106.984 142.449C106.777 142.509 106.64 142.74 106.692 142.944C106.743 143.148 106.981 143.289 107.188 143.235C107.394 143.178 107.568 142.908 107.495 142.71C107.422 142.512 107.133 142.362 106.947 142.464" fill="white"/>
</g>
<g opacity="0.6">
<path d="M105.8 144.849L105.822 144.006L116.03 144.141C116.03 144.141 116.507 144.336 116.458 144.666L105.8 144.849Z" fill="white"/>
</g>
<path d="M111.002 141.687C111.002 141.738 110.74 141.765 110.488 141.936C110.229 142.098 110.101 142.323 110.053 142.305C110.004 142.296 110.077 141.987 110.387 141.789C110.697 141.582 111.014 141.639 111.002 141.687Z" fill="#263238"/>
<path d="M112.13 142.122C112.143 142.173 111.921 142.263 111.747 142.482C111.568 142.698 111.528 142.932 111.476 142.932C111.428 142.941 111.385 142.641 111.607 142.371C111.82 142.101 112.127 142.074 112.13 142.122Z" fill="#263238"/>
<path d="M112.787 143.433C112.741 143.445 112.662 143.19 112.793 142.905C112.921 142.62 113.164 142.506 113.186 142.548C113.216 142.59 113.061 142.743 112.957 142.977C112.851 143.211 112.839 143.427 112.787 143.433Z" fill="#263238"/>
<path d="M110.765 141.645C110.774 141.642 110.746 141.54 110.658 141.372C110.57 141.207 110.415 140.973 110.15 140.754C110.08 140.697 110.001 140.646 109.907 140.613C109.816 140.58 109.691 140.559 109.578 140.619C109.466 140.676 109.399 140.802 109.393 140.922C109.384 141.048 109.435 141.168 109.499 141.264C109.77 141.669 110.36 141.843 110.88 141.687C111.406 141.525 111.765 141.12 111.984 140.727C112.012 140.673 112.036 140.616 112.042 140.547C112.048 140.478 112.024 140.397 111.969 140.346C111.86 140.247 111.704 140.259 111.607 140.31C111.412 140.421 111.297 140.562 111.184 140.694C110.974 140.964 110.874 141.228 110.828 141.411C110.783 141.594 110.786 141.699 110.795 141.702C110.828 141.714 110.85 141.273 111.273 140.766C111.379 140.649 111.513 140.508 111.662 140.43C111.735 140.394 111.823 140.4 111.872 140.445C111.917 140.487 111.905 140.571 111.853 140.658C111.644 141.018 111.3 141.39 110.831 141.534C110.372 141.672 109.849 141.519 109.618 141.18C109.56 141.099 109.524 141.009 109.53 140.925C109.533 140.841 109.572 140.763 109.639 140.727C109.773 140.655 109.959 140.748 110.077 140.835C110.597 141.246 110.737 141.663 110.765 141.645Z" fill="#263238"/>
<path d="M114.396 61.776C114.621 61.779 114.874 61.899 115.08 62.283C115.08 62.283 115.962 61.677 116.403 62.583C116.403 62.583 117.337 62.277 117.571 63.141C117.571 63.141 118.481 63.267 118.563 64.203C118.645 65.139 117.383 67.377 117.383 67.377L114.338 66.408C114.338 66.408 113.529 64.602 113.532 64.32C113.535 64.116 113.663 62.979 113.73 62.385C113.769 62.049 114.049 61.77 114.396 61.776Z" fill="#FFBE9D"/>
<path d="M113.827 64.1759C113.91 63.8699 114.025 63.5729 114.174 63.2909C114.223 63.1949 114.281 63.0989 114.375 63.0449C114.466 62.9909 114.579 62.988 114.685 62.988C115.248 62.982 115.811 62.9939 116.373 63.0239C116.455 63.0299 116.553 63.0419 116.592 63.1139C116.641 63.2039 116.559 63.3089 116.48 63.3749C116.115 63.6809 115.652 63.876 115.178 63.93C115.671 64.155 116.2 64.4099 116.452 64.8839C116.592 65.1479 116.635 65.4569 116.595 65.7509C116.556 66.0449 116.44 66.3269 116.285 66.5819" fill="#FFBE9D"/>
<path d="M116.279 66.582C116.285 66.585 116.346 66.516 116.428 66.366C116.507 66.219 116.613 65.988 116.65 65.679C116.683 65.376 116.635 64.965 116.358 64.626C116.087 64.284 115.652 64.062 115.208 63.861L115.184 64.005C115.488 63.972 115.801 63.882 116.09 63.726C116.227 63.654 116.358 63.57 116.473 63.477C116.531 63.432 116.598 63.378 116.644 63.3C116.699 63.231 116.702 63.075 116.601 63.009C116.513 62.946 116.425 62.949 116.355 62.943C116.285 62.943 116.215 62.94 116.148 62.94C116.011 62.937 115.877 62.937 115.747 62.934C115.488 62.931 115.239 62.928 115.001 62.925C114.886 62.925 114.773 62.925 114.664 62.922C114.557 62.925 114.436 62.934 114.335 62.997C114.238 63.06 114.186 63.153 114.144 63.231C114.104 63.312 114.068 63.387 114.037 63.459C113.976 63.603 113.931 63.729 113.897 63.834C113.833 64.044 113.815 64.164 113.824 64.167C113.836 64.17 113.873 64.056 113.955 63.855C113.995 63.753 114.049 63.633 114.116 63.495C114.189 63.366 114.256 63.18 114.393 63.09C114.533 63.009 114.773 63.051 114.998 63.051C115.232 63.057 115.479 63.066 115.737 63.075C115.868 63.078 116.002 63.081 116.136 63.087C116.264 63.096 116.44 63.081 116.501 63.126C116.559 63.153 116.489 63.27 116.37 63.351C116.261 63.438 116.139 63.516 116.008 63.585C115.737 63.729 115.442 63.816 115.156 63.849L114.88 63.882L115.132 63.996C115.576 64.194 115.987 64.401 116.242 64.707C116.501 65.007 116.559 65.379 116.54 65.667C116.519 65.961 116.434 66.189 116.37 66.342C116.312 66.498 116.27 66.579 116.279 66.582Z" fill="#EB996E"/>
<path d="M117.377 63.354C117.356 63.348 117.277 63.54 117.198 63.87C117.158 64.035 117.122 64.23 117.094 64.452C117.082 64.56 117.067 64.683 117.079 64.812C117.091 64.938 117.128 65.088 117.243 65.196C117.359 65.307 117.523 65.337 117.66 65.313C117.797 65.292 117.922 65.223 118.007 65.133C118.18 64.956 118.241 64.746 118.281 64.584C118.347 64.251 118.39 64.059 118.375 64.05C118.351 64.038 118.265 64.236 118.171 64.554C118.119 64.707 118.049 64.893 117.903 65.031C117.773 65.166 117.502 65.226 117.353 65.082C117.204 64.935 117.222 64.674 117.24 64.464C117.259 64.248 117.283 64.05 117.307 63.888C117.356 63.564 117.398 63.36 117.377 63.354Z" fill="#EB996E"/>
<path d="M116.185 63.528C116.167 63.531 116.133 63.708 116.087 64.017C116.075 64.17 116.066 64.377 116.188 64.578C116.249 64.677 116.349 64.761 116.477 64.803C116.601 64.848 116.769 64.824 116.875 64.728C116.985 64.638 117.039 64.524 117.091 64.425C117.14 64.326 117.185 64.227 117.222 64.131C117.298 63.942 117.356 63.765 117.395 63.615C117.474 63.315 117.487 63.123 117.465 63.12C117.441 63.114 117.389 63.297 117.286 63.582C117.234 63.726 117.167 63.894 117.085 64.074C116.997 64.248 116.915 64.479 116.772 64.608C116.629 64.737 116.401 64.644 116.309 64.5C116.209 64.353 116.197 64.17 116.2 64.023C116.215 63.726 116.212 63.528 116.185 63.528Z" fill="#EB996E"/>
<path d="M114.91 63.006C114.953 63.015 115.023 62.877 115.062 62.694C115.105 62.514 115.105 62.358 115.062 62.349C115.02 62.34 114.95 62.478 114.91 62.661C114.868 62.841 114.868 62.997 114.91 63.006Z" fill="#EB996E"/>
<path d="M118.776 80.9881C118.782 80.9881 118.794 80.9311 118.816 80.8231C118.837 80.6971 118.867 80.5411 118.901 80.3491C118.971 79.9351 119.068 79.3381 119.172 78.5941C119.369 77.1121 119.582 75.0241 119.281 72.7381C119.141 71.5951 118.834 70.5361 118.509 69.5971C118.18 68.6581 117.824 67.8331 117.523 67.1461C117.222 66.4771 116.976 65.9281 116.793 65.5231C116.711 65.3461 116.644 65.1991 116.592 65.0851C116.544 64.9861 116.516 64.9351 116.513 64.9351C116.507 64.9381 116.525 64.9921 116.565 65.0971C116.611 65.2171 116.668 65.3671 116.738 65.5471C116.909 65.9551 117.14 66.5101 117.42 67.1881C117.706 67.8811 118.049 68.7061 118.369 69.6421C118.685 70.5781 118.983 71.6281 119.123 72.7591C119.421 75.0211 119.229 77.0971 119.059 78.5791C118.968 79.3051 118.895 79.9021 118.84 80.3401C118.819 80.5351 118.797 80.6941 118.782 80.8201C118.776 80.9311 118.77 80.9881 118.776 80.9881Z" fill="#263238"/>
<path d="M40.8909 98.8199L39.6742 101.043C39.6742 101.043 35.4645 95.4389 35.939 87.3419C36.3345 80.6309 41.6635 76.5269 43.9417 73.3559C46.4602 69.8459 46.007 64.9379 44.8724 61.2599C43.7348 57.5819 41.5448 50.2139 42.1106 45.8879H42.7554C42.7554 45.8879 42.1927 49.0109 44.7903 57.7409C47.3879 66.4709 46.6579 71.4359 44.6291 73.9979C42.6003 76.5599 38.634 80.6039 37.8097 83.3969C37.0006 86.1359 35.2942 88.9019 36.8363 93.2219C38.3785 97.5419 41.0125 99.3329 41.0125 99.3329" fill="#455A64"/>
<path d="M28.6788 92.1569L26.9694 93.8849C26.9694 93.8849 24.2289 87.7379 26.6196 80.4689C28.6028 74.4449 34.7409 72.0149 37.7035 69.6839C40.9793 67.1039 41.7124 62.5169 41.4903 58.8809C41.2683 55.2449 40.9003 47.9849 42.4819 44.1809L43.1055 44.3399C43.1055 44.3399 41.8158 47.0489 42.2508 55.6499C42.6857 64.2509 40.7938 68.5979 38.2175 70.4369C35.6412 72.2729 30.8384 74.9849 29.3723 77.3279C27.9367 79.6259 25.622 81.7289 26.0873 86.0489C26.5497 90.3689 28.6728 92.6519 28.6728 92.6519" fill="#C0C0C0"/>
<path d="M55.3877 9.68396L73.8232 37.059C73.8232 37.059 56.8234 34.23 42.2812 46.251C42.2812 46.251 37.8768 28.878 21.902 24.231L55.3877 9.68396Z" fill="#B3C9DE"/>
<path d="M31.0423 20.256C31.0423 20.259 31.0788 20.274 31.1548 20.301C31.2369 20.328 31.3495 20.367 31.4924 20.415C31.6445 20.466 31.827 20.526 32.043 20.595C32.2589 20.673 32.5023 20.775 32.7791 20.886C33.871 21.342 35.4375 22.107 37.0739 23.466C38.7194 24.804 40.4167 26.724 41.8493 29.139C42.5732 30.342 43.2241 31.668 43.8051 33.084C44.3769 34.5 44.8849 36.012 45.2316 37.593L45.2621 37.731L45.3655 37.635C45.5845 37.431 45.8217 37.212 46.059 36.99C48.5744 34.725 51.5096 33.231 54.2624 32.226C57.0303 31.221 59.6491 30.696 61.8544 30.387C64.0656 30.084 65.8724 30 67.1195 29.979C67.743 29.97 68.2266 29.976 68.5582 29.982C68.7164 29.985 68.8411 29.988 68.9323 29.991C69.0175 29.994 69.0601 29.994 69.0601 29.991C69.0601 29.988 69.0175 29.982 68.9323 29.976C68.8411 29.97 68.7164 29.961 68.5582 29.952C68.2297 29.937 67.743 29.919 67.1195 29.922C65.8693 29.925 64.0565 29.991 61.8391 30.282C59.6248 30.576 56.9968 31.095 54.2137 32.094C51.4427 33.096 48.4893 34.596 45.9525 36.876C45.7122 37.098 45.475 37.32 45.2529 37.524L45.3868 37.566C45.0339 35.967 44.5229 34.455 43.9481 33.03C43.3641 31.608 42.704 30.279 41.974 29.07C40.5262 26.646 38.8077 24.72 37.1439 23.385C35.4892 22.029 33.9045 21.273 32.8004 20.832C32.5205 20.727 32.2742 20.628 32.0582 20.553C31.8392 20.487 31.6536 20.433 31.5016 20.385C31.3556 20.343 31.243 20.31 31.1579 20.286C31.0849 20.265 31.0453 20.256 31.0423 20.256Z" fill="white"/>
<g opacity="0.4">
<path d="M55.3874 9.68396L65.7534 25.074C65.7534 25.074 56.9265 23.622 47.8623 29.988C47.8623 29.988 46.0769 21.567 37.0614 17.646L55.3874 9.68396Z" fill="white"/>
</g>
<path d="M70.8303 35.0369C70.8668 35.0129 67.5088 29.8619 63.3295 23.5289C59.1503 17.1959 55.7314 12.0839 55.6949 12.1049C55.6584 12.1289 59.0164 17.2799 63.1957 23.6129C67.3749 29.9459 70.7938 35.0609 70.8303 35.0369Z" fill="#263238"/>
<path d="M42.2781 46.251C42.3207 46.266 45.1282 38.34 48.55 28.551C51.9719 18.759 54.7125 10.812 54.6729 10.797C54.6303 10.782 51.8229 18.708 48.401 28.5C44.9761 38.286 42.2355 46.236 42.2781 46.251Z" fill="#263238"/>
<path d="M25.8927 23.574C25.9109 23.613 32.3684 20.784 40.3132 17.256C48.2611 13.728 54.6881 10.836 54.6699 10.794C54.6516 10.755 48.1972 13.584 40.2463 17.112C32.3015 20.64 25.8744 23.535 25.8927 23.574Z" fill="#263238"/>
<path d="M44.2218 40.686C44.2522 40.719 46.2111 39.021 48.5988 36.894C50.9865 34.767 52.8997 33.018 52.8693 32.985C52.8389 32.952 50.88 34.65 48.4923 36.777C46.1046 38.904 44.1944 40.653 44.2218 40.686Z" fill="#263238"/>
<path d="M20.0038 85.5089C20.0038 85.5089 19.9734 85.4669 19.9065 85.3889C19.8365 85.3139 19.7423 85.1969 19.6267 85.0349C19.4016 84.7139 19.1035 84.1979 18.9362 83.4659C18.7659 82.7399 18.7324 81.7979 19.0488 80.7809C19.3529 79.7639 19.9917 78.6929 20.9285 77.7299C21.8653 76.7669 23.1033 75.8999 24.5907 75.3329C25.3328 75.0539 26.1328 74.8379 26.9753 74.7329C27.8148 74.6279 28.6939 74.6339 29.5851 74.7269C31.3705 74.8919 33.2199 75.3719 35.197 75.3989C37.174 75.4439 39.2241 74.8049 40.9335 73.6109C42.6521 72.4259 43.9387 70.7309 44.5653 68.8799C45.2071 67.0289 45.2345 65.0999 45.0246 63.3359C44.8025 61.5659 44.3828 59.9189 43.9722 58.3919C43.5615 56.8649 43.154 55.4489 42.8559 54.1379C42.5547 52.8299 42.351 51.6299 42.2749 50.5679C42.1989 49.5059 42.2323 48.5849 42.3418 47.8439C42.4452 47.1029 42.5913 46.5359 42.7068 46.1579C42.7677 45.9749 42.8133 45.8309 42.8467 45.7289C42.8772 45.6329 42.8893 45.5819 42.8893 45.5819C42.8893 45.5819 42.868 45.6299 42.8315 45.7259C42.795 45.8279 42.7433 45.9689 42.6764 46.1489C42.5517 46.5239 42.3935 47.0909 42.281 47.8349C42.1624 48.5789 42.1228 49.5059 42.1867 50.5739C42.2536 51.6419 42.4513 52.8479 42.7464 54.1619C43.0384 55.4759 43.4399 56.8949 43.8475 58.4249C44.252 59.9519 44.6657 61.5929 44.8816 63.3509C45.0885 65.1029 45.055 67.0049 44.4193 68.8289C43.8049 70.6469 42.5365 72.3149 40.8423 73.4819C39.1572 74.6549 37.1467 75.2879 35.2 75.2429C33.2472 75.2189 31.401 74.7419 29.6003 74.5799C28.7 74.4899 27.8118 74.4869 26.9571 74.5949C26.1054 74.7029 25.2933 74.9219 24.542 75.2099C23.0394 75.7919 21.7893 76.6739 20.8464 77.6519C19.9035 78.6299 19.2647 79.7189 18.9636 80.7539C18.6533 81.7889 18.6959 82.7489 18.8754 83.4779C19.0548 84.2159 19.362 84.7319 19.5993 85.0529C19.8396 85.3709 20.0038 85.5089 20.0038 85.5089Z" fill="#263238"/>
<path d="M54.6698 10.7939C54.6698 10.7939 54.6516 10.8869 54.6212 11.0669C54.5907 11.2529 54.5482 11.5229 54.4904 11.8739C54.3778 12.5819 54.2136 13.6289 54.0189 14.9789C53.6357 17.6759 53.0517 21.5879 52.7992 26.4599C52.6806 28.8959 52.6806 31.5719 52.9057 34.4339C53.1277 37.2959 53.5748 40.3349 54.2318 43.4909C54.317 43.8839 54.4022 44.2829 54.4873 44.6819C54.5329 44.8829 54.5694 45.0809 54.6212 45.2819C54.6729 45.4859 54.7398 45.6809 54.8037 45.8789C55.0713 46.6619 55.3724 47.4449 55.6797 48.2309C55.9929 49.0169 56.3093 49.8089 56.6287 50.6099C56.7929 51.0089 56.9572 51.4109 57.1214 51.8129L57.3708 52.4189L57.4986 52.7249L57.6446 53.0219C58.4019 54.6089 59.2749 56.1869 60.3243 57.6779C61.3767 59.1629 62.5964 60.5909 64.0777 61.7579L64.6313 62.1929L65.2122 62.5889L65.5012 62.7869L65.8023 62.9669L66.4076 63.3209C67.238 63.7469 68.0805 64.1429 68.9596 64.4189C70.7116 65.0009 72.5153 65.2979 74.2947 65.4119C75.1859 65.4779 76.071 65.4629 76.9439 65.4269C77.8169 65.3669 78.6807 65.2859 79.5263 65.1359C81.2205 64.8569 82.8417 64.4129 84.3808 63.8609C85.1504 63.5849 85.9016 63.2939 86.6317 62.9759C87.3677 62.6789 88.0704 62.3099 88.7395 61.9229C90.0748 61.1399 91.3037 60.2879 92.5507 59.5589C93.7887 58.8179 95.054 58.2059 96.3254 57.7829C97.5969 57.3599 98.8774 57.1289 100.106 57.0839C102.57 56.9669 104.8 57.4019 106.631 58.0709C108.468 58.7399 109.925 59.6189 111.035 60.4199C112.145 61.2269 112.921 61.9619 113.426 62.4779C113.681 62.7329 113.861 62.9399 113.985 63.0779C114.107 63.2159 114.171 63.2879 114.171 63.2879C114.171 63.2879 114.116 63.2099 114.001 63.0659C113.882 62.9249 113.706 62.7119 113.453 62.4539C112.954 61.9319 112.185 61.1879 111.074 60.3689C109.967 59.5559 108.51 58.6679 106.664 57.9869C104.827 57.3059 102.585 56.8589 100.103 56.9699C98.8652 57.0119 97.5725 57.2399 96.2889 57.6629C95.0054 58.0859 93.7309 58.7009 92.4869 59.4419C91.2337 60.1739 90.0018 61.0259 88.6726 61.7999C88.0065 62.1839 87.316 62.5439 86.5799 62.8409C85.853 63.1559 85.1017 63.4469 84.3352 63.7199C82.8022 64.2659 81.1871 64.7069 79.505 64.9829C78.6655 65.1329 77.8078 65.2109 76.9379 65.2709C76.0679 65.3069 75.1889 65.3219 74.3068 65.2559C72.5427 65.1419 70.745 64.8419 69.0143 64.2689C68.1414 63.9989 67.3079 63.6029 66.4867 63.1829L65.8875 62.8319L65.5894 62.6549L65.3035 62.4599L64.7286 62.0669L64.1781 61.6349C62.712 60.4769 61.5014 59.0639 60.4551 57.5879C59.4118 56.1029 58.5449 54.5369 57.7875 52.9529L57.6446 52.6589L57.5199 52.3589L57.2704 51.7559C57.1062 51.3539 56.9419 50.9519 56.7777 50.5529C56.4583 49.7519 56.1389 48.9599 55.8256 48.1769C55.5184 47.3909 55.2173 46.6109 54.9497 45.8309C54.8858 45.6359 54.8189 45.4409 54.7702 45.2459C54.7185 45.0509 54.682 44.8469 54.6364 44.6489C54.5512 44.2499 54.466 43.8539 54.3809 43.4609C53.7208 40.3079 53.2676 37.2749 53.0425 34.4219C52.8114 31.5689 52.8053 28.8959 52.9178 26.4629C53.1551 21.5969 53.7239 17.6849 54.0858 14.9849C54.2774 13.6379 54.4265 12.5909 54.5299 11.8769C54.5786 11.5229 54.6181 11.2559 54.6455 11.0669C54.6607 10.8899 54.6698 10.7939 54.6698 10.7939Z" fill="#263238"/>
</svg>
