<svg width="40" height="40" viewBox="0 0 40 40" fill="none" xmlns="http://www.w3.org/2000/svg">
<path d="M5 7.5H12.5V23.75H5C4.66848 23.75 4.35054 23.6183 4.11612 23.3839C3.8817 23.1495 3.75 22.8315 3.75 22.5V8.75C3.75 8.41848 3.8817 8.10054 4.11612 7.86612C4.35054 7.6317 4.66848 7.5 5 7.5V7.5Z" stroke="#444E72" stroke-width="2" stroke-linecap="round" stroke-linejoin="round"/>
<path d="M12.5 23.75L18.75 36.25C20.0761 36.25 21.3479 35.7232 22.2855 34.7855C23.2232 33.8479 23.75 32.5761 23.75 31.25V27.5H33.4219C33.7764 27.5009 34.1269 27.4259 34.45 27.2801C34.7731 27.1342 35.0613 26.921 35.2951 26.6545C35.529 26.3881 35.7031 26.0748 35.8058 25.7355C35.9085 25.3962 35.9374 25.0389 35.8906 24.6875L34.0156 9.6875C33.9398 9.08534 33.6474 8.53134 33.1932 8.12884C32.7389 7.72634 32.1538 7.50283 31.5469 7.5H12.5" stroke="#444E72" stroke-width="2" stroke-linecap="round" stroke-linejoin="round"/>
</svg>
