<svg width="40" height="40" viewBox="0 0 40 40" fill="none" xmlns="http://www.w3.org/2000/svg">
<g opacity="0.5">
<path d="M5 31.6666C7.28029 30.3501 9.86695 29.657 12.5 29.657C15.133 29.657 17.7197 30.3501 20 31.6666C22.2803 30.3501 24.8669 29.657 27.5 29.657C30.133 29.657 32.7197 30.3501 35 31.6666" stroke="#444E72" stroke-width="2" stroke-linecap="round" stroke-linejoin="round"/>
<path d="M5 10.0001C7.28029 8.68357 9.86695 7.99048 12.5 7.99048C15.133 7.99048 17.7197 8.68357 20 10.0001C22.2803 8.68357 24.8669 7.99048 27.5 7.99048C30.133 7.99048 32.7197 8.68357 35 10.0001" stroke="#444E72" stroke-width="2" stroke-linecap="round" stroke-linejoin="round"/>
<path d="M5 10V31.6667" stroke="#444E72" stroke-width="2" stroke-linecap="round" stroke-linejoin="round"/>
<path d="M20 10V31.6667" stroke="#444E72" stroke-width="2" stroke-linecap="round" stroke-linejoin="round"/>
<path d="M35 10V31.6667" stroke="#444E72" stroke-width="2" stroke-linecap="round" stroke-linejoin="round"/>
</g>
</svg>
