<svg width="153" height="150" viewBox="0 0 153 150" fill="none" xmlns="http://www.w3.org/2000/svg">
<path d="M124.182 109.893C124.179 109.89 124.179 109.866 124.175 109.821C124.175 109.767 124.172 109.701 124.169 109.62C124.166 109.434 124.163 109.176 124.157 108.843C124.151 108.162 124.142 107.184 124.13 105.951L124.175 105.996C120.726 106.002 115.239 106.014 109.068 106.026C109.101 105.993 108.988 106.101 109.144 105.951V105.954V105.957V105.966V105.981V106.014V106.077V106.203V106.455C109.144 106.623 109.144 106.791 109.144 106.959C109.144 107.292 109.144 107.625 109.144 107.955C109.144 108.612 109.144 109.26 109.144 109.893L109.068 109.818C113.371 109.83 117.134 109.842 119.835 109.851C121.179 109.86 122.259 109.866 123.014 109.872C123.382 109.875 123.668 109.878 123.874 109.881C123.966 109.884 124.042 109.884 124.099 109.887C124.154 109.89 124.182 109.893 124.182 109.893C124.185 109.896 124.16 109.896 124.112 109.899C124.057 109.899 123.984 109.902 123.896 109.905C123.695 109.908 123.412 109.911 123.053 109.914C122.305 109.92 121.231 109.926 119.893 109.935C117.18 109.944 113.396 109.956 109.074 109.968H108.998V109.893C108.998 109.26 108.998 108.612 108.998 107.955C108.998 107.625 108.998 107.295 108.998 106.959C108.998 106.791 108.998 106.623 108.998 106.455V106.203V106.077V106.014V105.981V105.966V105.957V105.954V105.951C109.153 105.798 109.04 105.909 109.077 105.876C115.248 105.888 120.735 105.9 124.185 105.906H124.233V105.951C124.221 107.196 124.212 108.183 124.206 108.87C124.2 109.197 124.197 109.452 124.194 109.635C124.191 109.716 124.191 109.779 124.188 109.83C124.185 109.875 124.185 109.896 124.182 109.893Z" fill="#D5D5D5"/>
<path d="M26.3486 136.032C26.3455 136.029 26.3455 136.005 26.3425 135.96C26.3425 135.906 26.3394 135.84 26.3364 135.759C26.3333 135.573 26.3303 135.315 26.3242 134.982C26.3181 134.301 26.309 133.323 26.2968 132.09L26.3425 132.135C22.8932 132.141 17.4061 132.153 11.2345 132.165C11.268 132.132 11.1554 132.24 11.3106 132.09V132.093V132.096V132.105V132.12V132.153V132.216V132.342V132.594C11.3106 132.762 11.3106 132.93 11.3106 133.098C11.3106 133.431 11.3106 133.764 11.3106 134.094C11.3106 134.751 11.3106 135.399 11.3106 136.032L11.2345 135.957C15.5385 135.972 19.301 135.981 22.002 135.99C23.3464 135.999 24.4262 136.005 25.1806 136.011C25.5486 136.014 25.8345 136.017 26.0413 136.02C26.1326 136.023 26.2086 136.023 26.2664 136.026C26.3212 136.029 26.3455 136.029 26.3486 136.032C26.3516 136.035 26.3273 136.035 26.2786 136.038C26.2238 136.038 26.1508 136.041 26.0626 136.044C25.8619 136.047 25.579 136.05 25.2201 136.053C24.4688 136.059 23.3981 136.065 22.0598 136.074C19.3466 136.083 15.5628 136.095 11.2406 136.107H11.1646V136.032C11.1646 135.399 11.1646 134.751 11.1646 134.094C11.1646 133.764 11.1646 133.434 11.1646 133.098C11.1646 132.93 11.1646 132.762 11.1646 132.594V132.342V132.216V132.153V132.12V132.105V132.096V132.093V132.09C11.3197 131.937 11.2071 132.048 11.2436 132.015C17.4152 132.027 22.9023 132.039 26.3516 132.045H26.4003V132.09C26.3881 133.335 26.379 134.322 26.3729 135.009C26.3668 135.336 26.3638 135.591 26.3607 135.774C26.3577 135.855 26.3577 135.918 26.3546 135.969C26.3516 136.011 26.3486 136.032 26.3486 136.032Z" fill="#D5D5D5"/>
<path d="M78.8695 41.8049C78.8665 41.8019 78.8665 41.7779 78.8635 41.7329C78.8635 41.6789 78.8604 41.6129 78.8574 41.5319C78.8543 41.3459 78.8513 41.0879 78.8452 40.7549C78.8391 40.0739 78.83 39.0959 78.8178 37.8629L78.8635 37.9079C75.4142 37.9139 69.927 37.9259 63.7555 37.9379C63.789 37.9049 63.6764 38.0129 63.8315 37.8629V37.8659V37.8689V37.8779V37.8929V37.9259V37.9889V38.1149V38.3669C63.8315 38.5349 63.8315 38.7029 63.8315 38.8709C63.8315 39.2039 63.8315 39.5369 63.8315 39.8669C63.8315 40.5239 63.8315 41.1719 63.8315 41.8049L63.7555 41.7299C68.0595 41.7449 71.822 41.7539 74.523 41.7629C75.8674 41.7719 76.9472 41.7779 77.7015 41.7839C78.0696 41.7869 78.3555 41.7899 78.5623 41.7929C78.6536 41.7959 78.7296 41.7959 78.7874 41.7989C78.8422 41.8019 78.8695 41.8019 78.8695 41.8049C78.8726 41.8079 78.8483 41.8079 78.7996 41.8109C78.7448 41.8109 78.6718 41.8139 78.5836 41.8169C78.3829 41.8199 78.1 41.8229 77.7411 41.8259C76.9928 41.8319 75.9191 41.8379 74.5808 41.8469C71.8676 41.8559 68.0838 41.8679 63.7616 41.8799H63.6855V41.8049C63.6855 41.1719 63.6855 40.5239 63.6855 39.8669C63.6855 39.5369 63.6855 39.2069 63.6855 38.8709C63.6855 38.7029 63.6855 38.5349 63.6855 38.3669V38.1149V37.9889V37.9259V37.8929V37.8779V37.8689V37.8659V37.8629C63.8407 37.7099 63.7281 37.8209 63.7646 37.7879C69.9362 37.7999 75.4233 37.8119 78.8726 37.8179H78.9213V37.8629C78.9091 39.1079 78.9 40.0949 78.8939 40.7819C78.8878 41.1089 78.8848 41.3639 78.8817 41.5469C78.8787 41.6279 78.8787 41.6909 78.8756 41.7419C78.8726 41.7839 78.8726 41.8049 78.8695 41.8049Z" fill="#D5D5D5"/>
<path d="M80.9194 37.863C80.9164 37.86 80.9164 37.836 80.9133 37.788C80.9103 37.731 80.9103 37.662 80.9073 37.578C80.9042 37.383 80.8981 37.119 80.892 36.789C80.886 36.099 80.8738 35.121 80.8616 33.921L80.9164 33.975C78.5652 33.981 75.3653 33.987 71.837 33.996C71.767 34.065 71.9313 33.903 71.913 33.921V33.924V33.927V33.936V33.951V33.984V34.05V34.179V34.437C71.913 34.608 71.913 34.779 71.913 34.947C71.913 35.286 71.913 35.622 71.913 35.949C71.913 36.609 71.91 37.248 71.91 37.86L71.837 37.788C74.4589 37.803 76.7128 37.815 78.331 37.821C79.1279 37.83 79.7666 37.836 80.2229 37.842C80.4358 37.845 80.6031 37.848 80.7339 37.851C80.8525 37.857 80.9164 37.86 80.9194 37.863C80.9225 37.866 80.8647 37.869 80.7552 37.872C80.6305 37.875 80.4662 37.878 80.2594 37.881C79.8092 37.887 79.1735 37.893 78.3857 37.902C76.7554 37.911 74.4833 37.923 71.8431 37.935H71.7701V37.863C71.7701 37.251 71.7671 36.612 71.7671 35.952C71.7671 35.622 71.7671 35.286 71.7671 34.95C71.7671 34.782 71.7671 34.611 71.7671 34.44V34.182V34.053V33.987V33.954V33.939V33.93V33.927V33.924C71.7488 33.939 71.913 33.78 71.8461 33.849C75.3714 33.858 78.5713 33.864 80.9255 33.87H80.9803V33.924C80.9681 35.139 80.959 36.126 80.9498 36.825C80.9438 37.152 80.9407 37.413 80.9346 37.602C80.9255 37.776 80.9225 37.866 80.9194 37.863Z" fill="#D5D5D5"/>
<path d="M24.9257 96.672H11.1621V100.263H24.9257V96.672Z" fill="#EBEBEB"/>
<path d="M110.777 82.77H97.0132V86.361H110.777V82.77Z" fill="#EBEBEB"/>
<path d="M47.741 9.66003H13.1025V66.21H47.741V9.66003Z" fill="#D5D5D5"/>
<path d="M46.5882 9.66003H11.9497V66.21H46.5882V9.66003Z" fill="#EBEBEB"/>
<path d="M45.1129 10.806H13.4248V65.064H45.1129V10.806Z" fill="#FAFAFA"/>
<path d="M38.9415 17.8561H19.4565V58.0141H38.9415V17.8561Z" fill="#EBEBEB"/>
<path d="M19.4565 43.8031C19.4109 40.0531 22.8297 36.3901 26.5983 35.8651C28.3929 35.6161 30.3031 35.9671 31.979 35.2891C34.9751 34.0771 35.9271 30.1531 38.9414 28.9891L39.0783 58.0141H19.4565V43.8031Z" fill="#D5D5D5"/>
<path d="M140.123 11.1691H112.976V49.9771H140.123V11.1691Z" fill="#D5D5D5"/>
<path d="M138.763 11.1691H111.616V49.9771H138.763V11.1691Z" fill="#F5F5F5"/>
<path d="M135.39 15.3721H114.989V45.7741H135.39V15.3721Z" fill="white"/>
<path d="M135.39 45.774C135.39 45.774 135.387 45.7231 135.387 45.6241C135.387 45.5251 135.384 45.3811 135.384 45.192C135.381 44.8111 135.378 44.2501 135.375 43.524C135.372 42.066 135.366 39.945 135.356 37.26C135.347 31.899 135.338 24.309 135.323 15.369L135.39 15.435C129.157 15.438 122.25 15.438 114.992 15.441H114.989L115.062 15.369C115.056 26.838 115.05 37.4131 115.047 45.7711L114.989 45.7141C121.204 45.7261 126.295 45.738 129.839 45.744C131.612 45.75 132.996 45.7561 133.942 45.7591C134.41 45.762 134.772 45.7651 135.019 45.7651C135.262 45.7711 135.39 45.774 135.39 45.774C135.39 45.774 135.271 45.7771 135.031 45.7801C134.788 45.7831 134.429 45.783 133.966 45.786C133.023 45.789 131.643 45.795 129.878 45.8011C126.326 45.807 121.222 45.8191 114.992 45.8311H114.935V45.774C114.932 37.416 114.926 26.841 114.919 15.372V15.3H114.992H114.995C122.256 15.303 129.161 15.303 135.393 15.306H135.46V15.372C135.448 24.33 135.435 31.935 135.426 37.3081C135.417 39.9841 135.411 42.1021 135.408 43.5571C135.405 44.2771 135.402 44.832 135.399 45.21C135.396 45.393 135.396 45.534 135.396 45.6331C135.393 45.729 135.39 45.774 135.39 45.774Z" fill="#D5D5D5"/>
<path d="M138.839 11.169C138.854 11.181 138.672 11.445 138.355 11.862C138.039 12.279 137.592 12.843 137.081 13.455C136.57 14.067 136.092 14.61 135.74 14.994C135.387 15.378 135.159 15.609 135.143 15.594C135.128 15.582 135.329 15.327 135.66 14.925C136.025 14.49 136.473 13.953 136.968 13.362C137.464 12.768 137.911 12.234 138.273 11.796C138.611 11.4 138.824 11.157 138.839 11.169Z" fill="#D5D5D5"/>
<path d="M135.493 45.675C136.506 47.265 137.701 48.7411 139.052 50.0641L135.493 45.675Z" fill="white"/>
<path d="M139.052 50.064C139.04 50.076 138.796 49.869 138.431 49.506C138.066 49.143 137.583 48.621 137.09 48.012C136.597 47.403 136.187 46.824 135.907 46.392C135.627 45.96 135.478 45.684 135.493 45.672C135.511 45.66 135.694 45.918 135.995 46.335C136.293 46.749 136.716 47.316 137.206 47.922C137.695 48.528 138.164 49.056 138.508 49.434C138.851 49.818 139.067 50.049 139.052 50.064Z" fill="#D5D5D5"/>
<path d="M111.613 49.9471C112.8 48.5041 113.983 47.0611 115.169 45.6211L111.613 49.9471Z" fill="white"/>
<path d="M115.169 45.621C115.199 45.645 114.43 46.635 113.447 47.829C112.465 49.023 111.644 49.971 111.613 49.947C111.583 49.923 112.352 48.933 113.335 47.739C114.314 46.542 115.138 45.594 115.169 45.621Z" fill="#D5D5D5"/>
<path d="M111.616 11.169C111.649 11.145 112.422 12.054 113.34 13.203C114.262 14.352 114.983 15.303 114.949 15.327C114.919 15.351 114.143 14.442 113.225 13.293C112.306 12.144 111.585 11.193 111.616 11.169Z" fill="#D5D5D5"/>
<path d="M129.036 21.546H122.204V40.677H129.036V21.546Z" fill="#D5D5D5"/>
<path d="M140.001 64.005H126.237V67.596H140.001V64.005Z" fill="#EBEBEB"/>
<path d="M134.179 71.379C134.179 71.379 134.176 71.355 134.176 71.313C134.176 71.265 134.173 71.205 134.173 71.13C134.17 70.962 134.167 70.725 134.164 70.422C134.158 69.801 134.152 68.91 134.14 67.788L134.182 67.83C131.04 67.836 126.043 67.845 120.419 67.857C120.449 67.827 120.349 67.926 120.489 67.788V67.791V67.794V67.8V67.815V67.845V67.902V68.016V68.247C120.489 68.4 120.489 68.553 120.489 68.706C120.489 69.009 120.489 69.312 120.489 69.612C120.489 70.212 120.489 70.8 120.489 71.379L120.419 71.31C124.34 71.322 127.767 71.334 130.228 71.34C131.454 71.349 132.436 71.355 133.124 71.358C133.458 71.361 133.72 71.364 133.906 71.367C133.991 71.37 134.058 71.37 134.109 71.37C134.155 71.376 134.179 71.379 134.179 71.379C134.179 71.379 134.158 71.382 134.115 71.382C134.064 71.382 134 71.385 133.918 71.385C133.735 71.388 133.477 71.391 133.148 71.394C132.464 71.4 131.487 71.406 130.268 71.412C127.795 71.421 124.349 71.43 120.413 71.442H120.343V71.373C120.343 70.794 120.343 70.206 120.343 69.606C120.343 69.306 120.343 69.003 120.343 68.7C120.343 68.547 120.343 68.394 120.343 68.241V68.01V67.896V67.839V67.809V67.794V67.788V67.785V67.782C120.483 67.644 120.382 67.743 120.413 67.713C126.034 67.725 131.034 67.734 134.176 67.74H134.219V67.782C134.21 68.916 134.201 69.816 134.195 70.443C134.191 70.74 134.185 70.974 134.185 71.139C134.182 71.211 134.182 71.271 134.182 71.316C134.182 71.361 134.182 71.382 134.179 71.379Z" fill="#D5D5D5"/>
<path d="M145.494 142.884C145.494 142.926 114.457 142.962 76.1837 142.962C37.8952 142.962 6.86719 142.926 6.86719 142.884C6.86719 142.842 37.8952 142.806 76.1837 142.806C114.46 142.806 145.494 142.839 145.494 142.884Z" fill="#263238"/>
<path d="M123.917 131.529C123.917 131.529 122.262 120.303 122.399 113.772C122.536 107.241 122.39 99.894 122.39 99.894H123.153C123.153 99.894 122.636 112.857 123.199 120.675C123.761 128.487 125.24 131.526 125.24 131.526H123.917" fill="#263238"/>
<path d="M128.847 87.264C128.695 86.88 128.507 86.481 128.154 86.259C127.67 85.956 127.035 86.082 126.496 86.271C124.191 87.075 122.15 91.314 121.216 93.543L124.276 103.713C129.796 98.661 130.754 92.031 128.847 87.264Z" fill="#455A64"/>
<path d="M127.974 86.673C127.977 86.676 127.962 86.721 127.929 86.805C127.889 86.901 127.841 87.024 127.78 87.177C127.646 87.498 127.457 87.963 127.232 88.539C126.782 89.694 126.207 91.308 125.693 93.126C125.182 94.947 124.829 96.621 124.613 97.839C124.504 98.448 124.422 98.943 124.37 99.285C124.343 99.444 124.321 99.576 124.306 99.678C124.291 99.768 124.279 99.816 124.276 99.813C124.273 99.813 124.273 99.765 124.282 99.675C124.294 99.57 124.306 99.438 124.324 99.279C124.361 98.934 124.431 98.436 124.528 97.824C124.723 96.6 125.064 94.917 125.575 93.09C126.089 91.266 126.679 89.652 127.15 88.503C127.387 87.927 127.588 87.468 127.734 87.153C127.804 87.006 127.862 86.886 127.904 86.793C127.947 86.715 127.971 86.67 127.974 86.673Z" fill="#263238"/>
<path d="M122.913 106.152C120.045 104.589 118.353 101.649 118.198 98.4211C118.089 96.1651 118.791 93.9511 119.588 91.8331C119.658 91.6501 119.74 91.4521 119.914 91.3561C120.154 91.2211 120.455 91.3411 120.696 91.4761C122.779 92.6461 124.041 94.8781 124.714 97.1491C125.161 98.6611 125.392 100.254 125.185 101.814C124.978 103.371 124.072 105.069 122.913 106.152Z" fill="#455A64"/>
<path d="M122.913 106.152C122.91 106.152 122.904 106.104 122.901 106.017C122.898 105.915 122.898 105.786 122.895 105.627C122.895 105.288 122.88 104.799 122.852 104.193C122.798 102.984 122.636 101.316 122.32 99.495C122.001 97.674 121.614 96.042 121.331 94.863C121.192 94.287 121.076 93.813 120.991 93.468C120.954 93.315 120.927 93.189 120.903 93.087C120.884 93 120.875 92.952 120.881 92.952C120.884 92.952 120.903 92.994 120.927 93.081C120.957 93.18 120.994 93.303 121.039 93.456C121.134 93.783 121.265 94.257 121.417 94.842C121.724 96.015 122.125 97.647 122.442 99.474C122.758 101.301 122.907 102.975 122.937 104.19C122.956 104.796 122.956 105.288 122.94 105.627C122.934 105.786 122.928 105.915 122.925 106.017C122.922 106.104 122.919 106.152 122.913 106.152Z" fill="#263238"/>
<g opacity="0.3">
<path d="M122.913 106.152C120.045 104.589 118.353 101.649 118.198 98.4211C118.089 96.1651 118.791 93.9511 119.588 91.8331C119.658 91.6501 119.74 91.4521 119.914 91.3561C120.154 91.2211 120.455 91.3411 120.696 91.4761C122.779 92.6461 124.041 94.8781 124.714 97.1491C125.161 98.6611 125.392 100.254 125.185 101.814C124.978 103.371 124.072 105.069 122.913 106.152Z" fill="black"/>
</g>
<path d="M126.149 123.327C128.972 123.939 131.296 125.901 134.018 126.858C135.819 127.491 137.857 127.713 139.295 128.955C138.952 128.094 138.131 127.524 137.337 127.032C135.098 125.652 132.698 124.524 130.204 123.672C128.923 123.237 127.533 122.871 126.229 123.231" fill="#455A64"/>
<path d="M122.071 125.808C118.536 125.751 114.813 122.784 111.294 122.607C114.974 121.431 120.249 122.391 122.071 125.808Z" fill="#455A64"/>
<path d="M123.452 117.444C125.246 116.805 127.217 116.775 129.103 117.066C130.989 117.354 132.811 117.951 134.621 118.545C134.438 117.336 133.447 116.427 132.513 115.62C131.81 115.014 131.104 114.405 130.298 113.94C129.492 113.475 128.574 113.163 127.64 113.202C126.515 113.25 125.444 113.82 124.708 114.66C123.969 115.497 123.573 116.34 123.452 117.444Z" fill="#455A64"/>
<path d="M116.194 113.592C113.968 111.717 110.597 111.9 107.674 111.966C112.17 114.087 117.015 116.994 120.89 120.087C121.009 118.05 119.008 115.959 116.194 113.592Z" fill="#455A64"/>
<g opacity="0.3">
<path d="M116.194 113.592C113.968 111.717 110.597 111.9 107.674 111.966C112.17 114.087 117.015 116.994 120.89 120.087C121.009 118.05 119.008 115.959 116.194 113.592Z" fill="black"/>
</g>
<path d="M124.452 111.006C125.572 110.271 126.703 109.569 127.874 109.044C129.045 108.519 130.137 107.682 131.269 107.079C132.735 106.296 134.006 105.207 135.354 104.235C136.701 103.263 138.179 102.387 139.828 102.129C138.483 101.856 137.081 102.006 135.758 102.36C134.435 102.717 133.179 103.275 131.926 103.83C130.189 104.601 128.425 105.393 127.004 106.644C125.584 107.898 124.3 109.134 124.452 111.006Z" fill="#455A64"/>
<path d="M133.954 125.808C133.951 125.811 133.915 125.796 133.842 125.76C133.76 125.718 133.656 125.664 133.534 125.601C133.267 125.46 132.887 125.253 132.406 125.016C132.169 124.893 131.904 124.761 131.618 124.629C131.335 124.491 131.025 124.353 130.7 124.215C130.046 123.939 129.319 123.654 128.522 123.468C127.728 123.276 126.94 123.234 126.253 123.411C125.906 123.492 125.58 123.576 125.292 123.693C125 123.81 124.741 123.945 124.516 124.086C124.063 124.368 123.746 124.665 123.543 124.881C123.339 125.097 123.238 125.229 123.229 125.223C123.226 125.22 123.248 125.184 123.293 125.121C123.339 125.055 123.409 124.962 123.506 124.848C123.701 124.62 124.014 124.308 124.47 124.011C124.698 123.864 124.96 123.72 125.255 123.597C125.55 123.471 125.882 123.384 126.228 123.297C126.928 123.108 127.749 123.147 128.552 123.345C129.358 123.534 130.091 123.828 130.745 124.11C131.071 124.254 131.381 124.395 131.664 124.536C131.95 124.674 132.211 124.809 132.449 124.938C132.926 125.187 133.303 125.406 133.562 125.559C133.68 125.631 133.778 125.688 133.86 125.736C133.924 125.778 133.957 125.802 133.954 125.808Z" fill="#263238"/>
<path d="M119.433 124.08C119.436 124.071 119.515 124.095 119.655 124.143C119.795 124.191 119.993 124.272 120.23 124.389C120.705 124.62 121.331 125.016 121.918 125.571C122.505 126.129 122.928 126.729 123.184 127.188C123.311 127.419 123.403 127.608 123.457 127.746C123.512 127.881 123.54 127.959 123.53 127.962C123.509 127.971 123.378 127.677 123.108 127.233C122.837 126.789 122.408 126.21 121.833 125.661C121.255 125.115 120.65 124.716 120.191 124.467C119.728 124.218 119.424 124.101 119.433 124.08Z" fill="#263238"/>
<path d="M111.61 113.418C111.61 113.415 111.665 113.43 111.762 113.463C111.872 113.502 112.012 113.55 112.185 113.613C112.374 113.682 112.596 113.763 112.854 113.856C113.116 113.952 113.399 114.093 113.718 114.231C114.99 114.801 116.684 115.761 118.32 117.123C119.126 117.816 119.856 118.521 120.468 119.208C121.076 119.898 121.59 120.546 121.992 121.11C122.396 121.674 122.7 122.145 122.91 122.469C123.011 122.622 123.09 122.745 123.153 122.844C123.208 122.931 123.236 122.976 123.233 122.979C123.23 122.982 123.196 122.94 123.132 122.859C123.071 122.778 122.98 122.655 122.871 122.499C122.649 122.181 122.332 121.722 121.919 121.164C121.511 120.606 120.991 119.967 120.379 119.286C119.768 118.605 119.041 117.909 118.238 117.219C116.614 115.863 114.938 114.9 113.679 114.312C113.362 114.168 113.083 114.021 112.824 113.922C112.572 113.82 112.349 113.733 112.164 113.661C111.994 113.592 111.857 113.535 111.747 113.49C111.659 113.445 111.61 113.421 111.61 113.418Z" fill="#263238"/>
<path d="M128.756 115.482C128.753 115.491 128.653 115.476 128.473 115.446C128.376 115.428 128.27 115.41 128.148 115.386C128.02 115.362 127.874 115.362 127.713 115.344C127.077 115.299 126.153 115.35 125.283 115.818C124.845 116.037 124.477 116.331 124.179 116.628C123.874 116.922 123.643 117.228 123.467 117.495C123.111 118.029 123.001 118.416 122.98 118.41C122.974 118.407 122.992 118.311 123.053 118.137C123.117 117.969 123.217 117.723 123.391 117.447C123.558 117.168 123.786 116.85 124.093 116.547C124.398 116.241 124.772 115.935 125.222 115.707C126.116 115.227 127.074 115.188 127.719 115.257C127.88 115.278 128.029 115.287 128.157 115.317C128.276 115.347 128.385 115.374 128.479 115.398C128.662 115.446 128.756 115.476 128.756 115.482Z" fill="#263238"/>
<path d="M132.309 104.613C132.312 104.616 132.263 104.646 132.175 104.694C132.075 104.748 131.944 104.82 131.78 104.904C131.436 105.087 130.943 105.354 130.344 105.705C129.748 106.059 129.045 106.491 128.297 107.019C127.552 107.547 126.749 108.162 126.01 108.909C125.645 109.284 125.31 109.677 125.076 110.103C124.845 110.541 124.623 110.964 124.419 111.372C124.011 112.185 123.677 112.935 123.436 113.577C123.196 114.222 123.047 114.756 122.959 115.131C122.867 115.503 122.837 115.716 122.822 115.713C122.819 115.713 122.822 115.659 122.837 115.56C122.849 115.458 122.871 115.311 122.91 115.122C122.983 114.744 123.123 114.201 123.351 113.55C123.582 112.899 123.908 112.143 124.312 111.324C124.513 110.913 124.732 110.49 124.963 110.049C125.207 109.602 125.547 109.206 125.918 108.825C126.667 108.069 127.476 107.454 128.227 106.929C128.981 106.404 129.693 105.978 130.298 105.633C130.907 105.294 131.405 105.036 131.755 104.865C131.923 104.787 132.056 104.724 132.16 104.673C132.257 104.628 132.306 104.607 132.309 104.613Z" fill="#263238"/>
<path d="M122.396 115.17C122.387 115.17 122.362 115.065 122.326 114.876C122.283 114.66 122.231 114.39 122.171 114.069C122.037 113.391 121.83 112.455 121.501 111.453C121.176 110.448 120.781 109.575 120.492 108.945C120.355 108.648 120.239 108.399 120.148 108.198C120.069 108.021 120.026 107.922 120.035 107.919C120.045 107.916 120.099 108.009 120.194 108.177C120.288 108.348 120.419 108.597 120.574 108.906C120.884 109.527 121.295 110.403 121.623 111.414C121.955 112.425 122.146 113.367 122.259 114.054C122.314 114.396 122.353 114.675 122.374 114.867C122.396 115.062 122.402 115.167 122.396 115.17Z" fill="#263238"/>
<path d="M122.14 107.238C122.052 105.921 121.617 104.64 120.991 103.473C119.275 100.272 116.051 97.902 112.453 97.191C115.087 101.064 117.724 104.94 120.358 108.813L121.38 110.886C122.073 109.761 122.229 108.555 122.14 107.238Z" fill="#455A64"/>
<path d="M133.48 130.14H115.096V133.353H133.48V130.14Z" fill="#B3C9DE"/>
<path d="M116.468 132.717L118.034 142.686H130.237L132.105 132.717H116.468Z" fill="#B3C9DE"/>
<path d="M133.467 133.356C133.467 133.392 129.322 133.419 124.209 133.419C119.093 133.419 114.947 133.389 114.947 133.356C114.947 133.32 119.093 133.293 124.209 133.293C129.322 133.293 133.467 133.323 133.467 133.356Z" fill="#263238"/>
<path d="M102.619 15.4351C102.57 15.4351 102.522 15.4321 102.473 15.4261C101.795 15.3571 101.122 14.9671 100.523 14.3041C100.253 14.0041 99.8632 13.8301 99.4587 13.8301H79.3016C78.8544 13.8301 78.4256 14.0011 78.091 14.3101C77.5526 14.8081 76.7222 15.3991 75.828 15.3991C74.6965 15.3991 73.8813 14.4031 73.5771 13.4161L74.5383 13.1281C74.6965 13.6441 75.171 14.4091 75.831 14.4091C76.2721 14.4091 76.8317 14.1181 77.4066 13.5871C77.9267 13.1071 78.602 12.8401 79.3046 12.8401H99.4617C100.152 12.8401 100.815 13.1341 101.275 13.6471C101.573 13.9801 102.044 14.3881 102.579 14.4421C103.115 14.4961 103.763 13.2511 104.021 12.3301L104.988 12.5941C104.903 12.8941 104.149 15.4351 102.619 15.4351Z" fill="#D5D5D5"/>
<path d="M87.6072 137.678H90.2261L90.2261 7.22034H87.6072L87.6072 137.678Z" fill="#D5D5D5"/>
<path d="M78.3857 139.251H98.6676C98.6676 138.381 97.9528 137.679 97.0737 137.679H79.9826C79.1005 137.676 78.3857 138.381 78.3857 139.251Z" fill="#D5D5D5"/>
<path d="M95.1636 140.7C95.1636 141.936 96.1795 142.935 97.4296 142.935C98.6828 142.935 99.6957 141.933 99.6957 140.7C99.6957 139.467 98.6797 138.465 97.4296 138.465C96.1795 138.465 95.1636 139.464 95.1636 140.7Z" fill="#263238"/>
<path d="M78.919 142.9C80.1544 142.703 80.9937 141.556 80.7937 140.337C80.5938 139.119 79.4302 138.291 78.1948 138.488C76.9595 138.685 76.1201 139.833 76.3201 141.051C76.5201 142.27 77.6837 143.098 78.919 142.9Z" fill="#263238"/>
<path d="M88.9148 142.914C90.1483 142.705 90.9767 141.55 90.765 140.333C90.5534 139.116 89.3819 138.299 88.1484 138.508C86.915 138.717 86.0866 139.872 86.2982 141.089C86.5099 142.306 87.6813 143.123 88.9148 142.914Z" fill="#263238"/>
<path d="M89.3784 13.581C89.3784 13.533 91.6931 13.494 94.5462 13.494C97.4023 13.494 99.714 13.533 99.714 13.581C99.714 13.629 97.3993 13.668 94.5462 13.668C91.6901 13.668 89.3784 13.629 89.3784 13.581Z" fill="#263238"/>
<path d="M89.4242 13.557C89.3968 13.599 89.2325 13.497 89.2599 13.287C89.2964 13.08 89.485 13.029 89.4972 13.077C89.5184 13.119 89.4454 13.203 89.4302 13.314C89.412 13.422 89.4576 13.524 89.4242 13.557Z" fill="#263238"/>
<path d="M87.5872 20.3161C87.5386 20.3161 87.499 18.0601 87.499 15.2761C87.499 12.4921 87.5386 10.2361 87.5872 10.2361C87.6359 10.2361 87.6754 12.4921 87.6754 15.2761C87.6724 18.0571 87.6329 20.3161 87.5872 20.3161Z" fill="#263238"/>
<path d="M102.327 45.3151H92.0679V39.9031C92.0679 38.0461 93.6009 36.5341 95.4837 36.5341H98.9116C100.794 36.5341 102.327 38.0461 102.327 39.9031V45.3151ZM93.4062 43.9951H100.989V39.9001C100.989 38.7691 100.058 37.8511 98.9116 37.8511H95.4837C94.3369 37.8511 93.4062 38.7691 93.4062 39.9001V43.9951Z" fill="#D5D5D5"/>
<path d="M88.9263 63.9496H105.704V43.4566H88.9263V63.9496Z" fill="#D5D5D5"/>
<path d="M93.8537 63.7654H105.707V43.4554H93.8537V63.7654Z" fill="#F5F5F5"/>
<path d="M104.21 45.4381H95.356V54.1711H104.21V45.4381Z" fill="white"/>
<path d="M95.3558 54.1681C95.3528 54.1711 95.3497 54.1201 95.3467 54.0151C95.3437 53.8981 95.3406 53.7481 95.3376 53.5561C95.3315 53.1361 95.3254 52.5421 95.3193 51.7891C95.3102 50.2411 95.298 48.0541 95.2798 45.4351V45.3601H95.3558C97.9321 45.3571 100.968 45.3541 104.207 45.3481C104.189 45.3301 104.371 45.5101 104.295 45.4351V45.4381V45.4441V45.4531V45.4711V45.5071V45.5821V45.7321V46.0291C104.295 46.2271 104.295 46.4251 104.295 46.6201C104.295 47.0131 104.295 47.4031 104.295 47.7871C104.295 48.5581 104.292 49.3111 104.292 50.0431C104.289 51.5071 104.286 52.8931 104.283 54.1621V54.2371H104.207C101.552 54.2221 99.3343 54.2071 97.7648 54.1981C97.0044 54.1891 96.4022 54.1831 95.9733 54.1801C95.7786 54.1771 95.6235 54.1741 95.5079 54.1711C95.4075 54.1741 95.3558 54.1711 95.3558 54.1681C95.3589 54.1651 95.4167 54.1621 95.5262 54.1591C95.6478 54.1561 95.806 54.1531 96.0067 54.1501C96.4387 54.1441 97.047 54.1381 97.8135 54.1321C99.3708 54.1231 101.573 54.1111 104.207 54.0931L104.131 54.1681C104.128 52.8991 104.125 51.5161 104.122 50.0491C104.122 49.3171 104.119 48.5611 104.119 47.7931C104.119 47.4091 104.119 47.0191 104.119 46.6261C104.119 46.4311 104.119 46.2331 104.119 46.0351V45.7381V45.5881V45.5131V45.4771V45.4591V45.4501V45.4441V45.4411C104.04 45.3631 104.225 45.5431 104.204 45.5251C100.965 45.5221 97.9291 45.5161 95.3528 45.5131L95.4288 45.4381C95.4136 48.0391 95.3984 50.2081 95.3893 51.7441C95.3802 52.5001 95.3741 53.1031 95.371 53.5261C95.368 53.7241 95.3649 53.8831 95.3619 54.0001C95.3619 54.1081 95.3589 54.1651 95.3558 54.1681Z" fill="#263238"/>
<path d="M89.2144 43.455C89.2144 43.407 92.8948 43.368 97.436 43.368C101.977 43.368 105.658 43.407 105.658 43.455C105.658 43.503 101.977 43.542 97.436 43.542C92.8978 43.542 89.2144 43.503 89.2144 43.455Z" fill="#263238"/>
<path d="M88.9256 63.948C88.8769 63.948 88.8374 59.394 88.8374 53.778C88.8374 48.159 88.8769 43.608 88.9256 43.608C88.9743 43.608 89.0138 48.159 89.0138 53.778C89.0138 59.394 88.9743 63.948 88.9256 63.948Z" fill="#263238"/>
<path d="M93.8499 63.948C93.8013 63.948 93.7617 59.394 93.7617 53.778C93.7617 48.159 93.8013 43.608 93.8499 43.608C93.8986 43.608 93.9381 48.159 93.9381 53.778C93.9381 59.394 93.8986 63.948 93.8499 63.948Z" fill="#263238"/>
<path d="M102.852 57.2083H104.209V55.8703H102.852V57.2083Z" fill="#455A64"/>
<path d="M100.976 57.2083H102.335V55.8703H100.976V57.2083Z" fill="#455A64"/>
<path d="M99.1048 57.2083H100.461V55.8703H99.1048V57.2083Z" fill="#455A64"/>
<path d="M97.2308 57.2083H98.5874V55.8703H97.2308V57.2083Z" fill="#455A64"/>
<path d="M95.3602 57.2083H96.7168V55.8703H95.3602V57.2083Z" fill="#455A64"/>
<path d="M102.852 58.9829H104.209V57.6449H102.852V58.9829Z" fill="#455A64"/>
<path d="M100.976 58.9829H102.335V57.6449H100.976V58.9829Z" fill="#455A64"/>
<path d="M99.1048 58.9829H100.461V57.6449H99.1048V58.9829Z" fill="#455A64"/>
<path d="M97.2308 58.9829H98.5874V57.6449H97.2308V58.9829Z" fill="#455A64"/>
<path d="M95.3602 58.9829H96.7168V57.6449H95.3602V58.9829Z" fill="#455A64"/>
<path d="M102.852 60.7574H104.209V59.4194H102.852V60.7574Z" fill="#455A64"/>
<path d="M100.976 60.7574H102.335V59.4194H100.976V60.7574Z" fill="#455A64"/>
<path d="M99.1048 60.7574H100.461V59.4194H99.1048V60.7574Z" fill="#455A64"/>
<path d="M95.3575 60.7574H98.5908V59.4194H95.3575V60.7574Z" fill="#B3C9DE"/>
<path d="M95.7998 49.947C95.7998 49.941 95.8485 49.926 95.9458 49.905C96.0431 49.884 96.1831 49.854 96.3716 49.83C96.5572 49.809 96.7914 49.788 97.0591 49.83C97.3237 49.875 97.6339 49.983 97.8773 50.241C97.9989 50.367 98.0871 50.538 98.1297 50.721C98.1723 50.907 98.1723 51.099 98.1693 51.294C98.1662 51.486 98.151 51.69 98.1814 51.876C98.2149 52.065 98.294 52.26 98.4278 52.404C98.5586 52.551 98.7654 52.614 98.9479 52.53C99.1274 52.449 99.2582 52.257 99.3464 52.053C99.5137 51.627 99.6262 51.147 99.684 50.658C99.754 50.166 99.6901 49.686 99.7418 49.197C99.7813 48.714 100.082 48.213 100.572 48.093C100.816 48.033 101.068 48.117 101.241 48.258C101.415 48.402 101.533 48.582 101.619 48.765C101.78 49.134 101.834 49.491 101.987 49.773C102.133 50.055 102.37 50.241 102.601 50.349C102.832 50.457 103.057 50.49 103.24 50.49C103.608 50.487 103.793 50.37 103.799 50.391C103.802 50.394 103.757 50.424 103.669 50.466C103.577 50.505 103.434 50.547 103.243 50.559C103.054 50.571 102.814 50.544 102.561 50.439C102.312 50.334 102.044 50.139 101.877 49.833C101.707 49.533 101.64 49.167 101.485 48.828C101.406 48.66 101.293 48.498 101.144 48.381C100.995 48.264 100.797 48.204 100.609 48.252C100.417 48.297 100.247 48.435 100.125 48.606C100 48.78 99.9395 48.993 99.9121 49.221C99.8635 49.671 99.9273 50.175 99.8574 50.682C99.7966 51.189 99.6871 51.672 99.5046 52.125C99.4042 52.347 99.2643 52.575 99.0148 52.686C98.7685 52.803 98.4643 52.701 98.3092 52.518C98.148 52.338 98.0658 52.122 98.0293 51.906C97.9989 51.687 98.0172 51.486 98.0233 51.294C98.0476 50.913 98.005 50.556 97.783 50.325C97.5731 50.091 97.2872 49.977 97.0378 49.929C96.7853 49.881 96.5572 49.89 96.3747 49.899C96.0097 49.926 95.8028 49.959 95.7998 49.947Z" fill="#B3C9DE"/>
<path d="M69.097 28.65C69.1274 29.064 69.1731 29.505 69.462 29.829C69.8727 30.288 70.6087 30.348 71.2657 30.372C73.4253 30.45 75.5849 30.531 77.7475 30.609C78.3893 30.633 79.1224 30.621 79.5482 30.186C79.8524 29.874 80.3451 29.067 80.3816 28.653C80.7223 24.765 80.6219 21.21 80.1535 17.331C80.0197 16.212 79.8007 15.063 79.1376 14.109C78.4745 13.155 77.638 12.453 76.0107 12.129C72.9721 11.682 70.4232 12.504 69.754 14.121C69.1639 15.549 69.2552 16.887 69.1731 18.411C68.9875 21.822 68.8598 25.242 69.097 28.65ZM73.5926 13.08C73.7264 12.852 74.1188 12.756 74.28 12.798C74.6542 12.798 75.01 13.056 75.0922 13.386C75.1743 13.716 74.9735 14.082 74.6359 14.229C74.2983 14.376 73.8542 14.283 73.6169 14.022C73.3797 13.758 73.4192 13.38 73.5926 13.08Z" fill="#F5F5F5"/>
<path d="M73.5925 13.08C73.6047 13.086 73.5743 13.149 73.5408 13.269C73.5104 13.386 73.4709 13.566 73.5378 13.764C73.5986 13.959 73.8055 14.139 74.0762 14.196C74.3438 14.259 74.6815 14.19 74.8731 13.941C75.0678 13.704 75.0678 13.377 74.8974 13.176C74.7362 12.966 74.4838 12.87 74.28 12.861H74.2739L74.2648 12.858C74.064 12.822 73.8602 12.903 73.7568 12.96C73.6443 13.023 73.6047 13.086 73.5925 13.08C73.5834 13.077 73.6047 12.996 73.7173 12.903C73.8328 12.822 74.0123 12.708 74.2952 12.735L74.28 12.732C74.5203 12.726 74.8183 12.822 75.0221 13.071C75.1255 13.194 75.1955 13.362 75.1925 13.539C75.1925 13.716 75.1255 13.893 75.01 14.037C74.7697 14.349 74.3499 14.424 74.0427 14.34C73.7264 14.268 73.48 14.034 73.4222 13.791C73.3614 13.551 73.4283 13.356 73.477 13.239C73.5317 13.128 73.5834 13.074 73.5925 13.08Z" fill="#263238"/>
<path d="M69.0968 28.65C69.0938 28.65 69.0877 28.605 69.0785 28.512C69.0694 28.413 69.0603 28.281 69.0451 28.11C69.0177 27.756 68.9873 27.234 68.9599 26.559C68.9052 25.212 68.896 23.259 68.9903 20.853C69.0299 19.647 69.1181 18.333 69.1515 16.917C69.182 16.209 69.2428 15.468 69.4557 14.73C69.5652 14.367 69.6899 13.992 69.918 13.656C70.1462 13.326 70.4473 13.038 70.794 12.819C71.4875 12.375 72.3088 12.129 73.1513 12.012C73.9969 11.889 74.8729 11.907 75.752 12.012C76.631 12.126 77.5222 12.432 78.2461 13.011C78.9579 13.593 79.5084 14.385 79.8065 15.27C80.1107 16.155 80.205 17.073 80.3053 17.961C80.4027 18.852 80.4817 19.731 80.5395 20.598C80.6551 22.329 80.6855 24.006 80.6338 25.602C80.6095 26.4 80.5669 27.177 80.5091 27.93C80.4939 28.119 80.4787 28.305 80.4635 28.491C80.4574 28.671 80.4179 28.881 80.3418 29.049C80.1958 29.397 80.0072 29.709 79.7913 30C79.6818 30.141 79.5601 30.288 79.402 30.39C79.2468 30.492 79.0735 30.558 78.9001 30.6C78.5503 30.684 78.2035 30.684 77.869 30.675C77.2028 30.648 76.5641 30.624 75.9527 30.6C74.733 30.552 73.6289 30.507 72.6586 30.468C72.175 30.447 71.7248 30.429 71.3081 30.411C70.8944 30.396 70.5081 30.363 70.1735 30.27C69.839 30.18 69.5652 30.006 69.401 29.796C69.2367 29.583 69.1789 29.361 69.1424 29.187C69.0846 28.836 69.0968 28.65 69.0968 28.65C69.0998 28.65 69.1059 28.695 69.115 28.785C69.1272 28.875 69.1394 29.01 69.1789 29.181C69.2185 29.352 69.2823 29.565 69.4435 29.766C69.6017 29.967 69.8663 30.126 70.1948 30.21C70.5203 30.297 70.8975 30.324 71.3142 30.336C71.7309 30.348 72.181 30.363 72.6647 30.378C73.635 30.411 74.7391 30.447 75.9588 30.486C76.5702 30.507 77.2089 30.528 77.875 30.549C78.2066 30.555 78.5442 30.552 78.8697 30.471C79.0309 30.432 79.189 30.369 79.3259 30.279C79.4628 30.189 79.5723 30.06 79.6788 29.919C79.8856 29.637 80.0711 29.328 80.208 28.998C80.278 28.827 80.3114 28.674 80.3175 28.482C80.3327 28.296 80.3479 28.11 80.3631 27.924C80.4148 27.171 80.4574 26.397 80.4787 25.602C80.5274 24.012 80.4909 22.341 80.3753 20.616C80.3175 19.752 80.2384 18.876 80.138 17.985C80.0377 17.097 79.9434 16.191 79.6453 15.33C79.3594 14.472 78.821 13.707 78.1397 13.146C77.4492 12.594 76.5854 12.294 75.7307 12.183C74.8699 12.078 74.003 12.06 73.1757 12.177C72.3483 12.288 71.5484 12.528 70.8823 12.954C70.5477 13.164 70.2648 13.434 70.0488 13.746C69.8359 14.055 69.7112 14.418 69.6017 14.775C69.3918 15.492 69.328 16.221 69.2945 16.926C69.2519 18.342 69.1576 19.659 69.112 20.862C69.0055 23.268 68.9934 25.218 69.0268 26.562C69.042 27.234 69.0633 27.759 69.0785 28.113C69.0846 28.284 69.0907 28.416 69.0968 28.515C69.0998 28.602 69.0998 28.65 69.0968 28.65Z" fill="#263238"/>
<path d="M70.9554 29.004L77.7657 29.271C78.3801 29.295 78.9033 28.872 78.9428 28.317L79.1496 19.8H69.8726V27.987C69.8756 28.533 70.3501 28.98 70.9554 29.004Z" fill="#B3C9DE"/>
<path d="M77.6315 13.95C77.6375 13.947 77.668 13.98 77.7227 14.046C77.7805 14.112 77.8626 14.211 77.9539 14.352C78.1425 14.625 78.3797 15.048 78.5774 15.609C78.7751 16.17 78.9272 16.863 79.0154 17.637C79.1067 18.414 79.1432 19.269 79.1827 20.163C79.2527 21.957 79.2314 23.583 79.1797 24.759C79.1553 25.347 79.1249 25.821 79.0975 26.148C79.0702 26.475 79.0489 26.658 79.0367 26.655C79.0245 26.655 79.0245 26.472 79.0306 26.145C79.0367 25.785 79.0458 25.317 79.058 24.753C79.0763 23.58 79.0793 21.957 79.0093 20.166C78.9728 19.272 78.9363 18.417 78.8572 17.649C78.7782 16.881 78.6413 16.197 78.4618 15.642C78.1029 14.532 77.598 13.971 77.6315 13.95Z" fill="#263238"/>
<path d="M70.1065 22.497C70.0852 22.5 70.0274 22.134 69.9757 21.543C69.924 20.949 69.8814 20.127 69.8844 19.221C69.8875 18.312 69.9392 17.49 69.997 16.899C70.0548 16.308 70.1156 15.942 70.1369 15.945C70.1612 15.948 70.143 16.314 70.1186 16.908C70.0913 17.499 70.0608 18.318 70.0578 19.224C70.0548 20.127 70.0761 20.946 70.0973 21.54C70.1156 22.128 70.1308 22.494 70.1065 22.497Z" fill="#263238"/>
<path d="M71.1802 29.121C71.1802 29.097 71.6273 29.094 72.3451 29.106C73.063 29.118 74.0576 29.148 75.1526 29.19C75.697 29.214 76.2172 29.235 76.6978 29.256C77.1692 29.28 77.5951 29.283 77.9357 29.205C78.2794 29.133 78.5288 28.989 78.6809 28.866C78.833 28.743 78.8908 28.647 78.903 28.656C78.9121 28.659 78.8725 28.77 78.7265 28.917C78.5836 29.061 78.325 29.232 77.9661 29.325C77.6072 29.421 77.1662 29.433 76.6917 29.415C76.2111 29.4 75.691 29.382 75.1465 29.361C74.0515 29.319 73.0599 29.271 72.3421 29.229C71.6212 29.184 71.1802 29.145 71.1802 29.121Z" fill="#263238"/>
<path d="M71.3679 26.1047H77.1714V24.1937H71.3679V26.1047Z" fill="white"/>
<path d="M72.3301 25.131C72.3301 25.083 73.1757 25.047 74.2159 25.047C75.2562 25.047 76.1017 25.086 76.1017 25.131C76.1017 25.179 75.2562 25.215 74.2159 25.215C73.1726 25.215 72.3301 25.179 72.3301 25.131Z" fill="#263238"/>
<path d="M71.0467 21.768C71.0528 21.759 71.1562 21.807 71.3387 21.909C71.5212 22.008 71.7797 22.161 72.096 22.353C72.7287 22.74 73.5865 23.301 74.505 23.964C75.4206 24.63 76.2205 25.269 76.7833 25.752C77.0661 25.992 77.2882 26.193 77.4403 26.334C77.5923 26.475 77.6714 26.559 77.6623 26.568C77.6471 26.586 77.2882 26.301 76.7072 25.845C76.1263 25.389 75.3172 24.765 74.4047 24.102C73.4922 23.439 72.6466 22.866 72.0322 22.455C71.4178 22.044 71.0345 21.789 71.0467 21.768Z" fill="white"/>
<path d="M73.5739 22.116C73.6013 22.077 74.2705 22.479 75.0735 23.016C75.8765 23.55 76.5031 24.018 76.4757 24.057C76.4483 24.096 75.7791 23.694 74.9761 23.157C74.1762 22.623 73.5496 22.155 73.5739 22.116Z" fill="white"/>
<path d="M73.8876 14.13C73.8876 14.13 73.0329 12.486 72.8291 10.959L73.8207 10.848C73.8207 10.848 74.4442 13.167 74.9248 13.812L73.8876 14.13Z" fill="#D5D5D5"/>
<path d="M72.275 130.23L73.7928 142.782L70.3527 142.815L65.4678 130.242L72.275 130.23Z" fill="#263238"/>
<path d="M21.5188 69.1981C21.4853 64.9951 24.7673 61.4791 29.0378 61.1491C37.9438 60.4561 52.4252 59.5831 59.6248 60.5281C62.3258 60.8821 64.5036 62.8651 65.0785 65.4781L69.565 85.7851L88.5176 86.0341C88.5176 86.0281 94.4154 85.9021 96.0701 88.9981C97.7704 92.1781 97.5088 97.6411 97.1559 100.695C96.9217 102.729 93.9743 130.398 93.9743 130.398L22.0085 130.29L21.5188 69.1981Z" fill="#455A64"/>
<path d="M56.8691 130.338L52.048 142.95L48.6079 142.917L50.1135 130.323L56.8691 130.338Z" fill="#263238"/>
<path d="M93.2655 130.278L94.3848 142.443L90.9447 142.41L86.6377 130.263L93.2655 130.278Z" fill="#263238"/>
<path d="M29.8471 130.242L24.9592 142.884L21.519 142.851L23.0368 130.233L29.8471 130.242Z" fill="#263238"/>
<path d="M68.7559 82.464C68.7559 82.464 77.8352 84.45 77.3638 78.288C76.8923 72.126 71.6424 70.092 71.6454 65.268C71.6485 60.444 73.7381 59.304 77.4033 57.813C79.2709 57.051 80.5028 53.922 76.8224 51.804C73.002 49.602 71.7428 50.244 72.2234 42.384C72.707 34.524 74.8179 34.746 74.3495 29.979" stroke="#D5D5D5" stroke-width="2" stroke-miterlimit="10"/>
<path d="M69.0386 82.518C69.0386 82.518 77.8351 84.45 77.3636 78.288C76.8922 72.126 71.6422 70.092 71.6453 65.268C71.6483 60.444 73.7379 59.304 77.4032 57.813C79.2707 57.051 80.5026 53.922 76.8222 51.804C73.0019 49.602 71.7426 50.244 72.2232 42.384C72.7068 34.524 74.8177 34.746 74.3493 29.979" stroke="#B3C9DE" stroke-miterlimit="10"/>
<path d="M58.7579 110.631C58.77 110.667 60.7806 110.04 63.2443 109.227C65.7111 108.414 67.7004 107.727 67.6882 107.691C67.676 107.655 65.6655 108.282 63.2017 109.095C60.735 109.905 58.7457 110.595 58.7579 110.631Z" fill="#455A64"/>
<path d="M50.1258 98.5291L57.6935 97.5151C57.6935 97.5151 72.2114 95.3191 80.1957 94.3441C82.4374 94.0711 84.6061 94.2451 85.0989 94.3441C88.0311 94.9261 89.8956 99.8371 90.2849 104.223C90.4796 106.425 90.7838 134.385 90.7838 134.385L84.3871 134.37L81.2481 117.588L80.1927 106.824L67.9743 109.908L51.9721 109.851C49.995 108.324 50.1258 98.5291 50.1258 98.5291Z" fill="#FFBF9D"/>
<path d="M80.2019 102.537C80.1928 102.537 80.1898 102.681 80.205 102.942C80.2202 103.2 80.2536 103.575 80.3054 104.037C80.4057 104.961 80.5761 106.23 80.7799 107.631C80.9836 109.032 81.1874 110.298 81.3426 111.213C81.4216 111.669 81.4886 112.041 81.5403 112.296C81.592 112.551 81.6254 112.692 81.6346 112.689C81.6437 112.686 81.6285 112.545 81.595 112.287C81.5555 112.005 81.5038 111.639 81.4429 111.198C81.3061 110.253 81.1236 108.999 80.9198 107.61C80.719 106.221 80.5396 104.967 80.4027 104.022C80.3449 103.584 80.2962 103.218 80.2567 102.933C80.2293 102.678 80.2141 102.537 80.2019 102.537Z" fill="#455A64"/>
<path d="M78.304 103.713C78.2888 103.716 78.3253 103.923 78.45 104.241C78.5747 104.556 78.8029 104.973 79.1405 105.372C79.4781 105.768 79.8553 106.062 80.1473 106.239C80.4393 106.416 80.64 106.488 80.6461 106.473C80.6704 106.434 79.9039 106.062 79.2469 105.279C78.5839 104.505 78.3466 103.695 78.304 103.713Z" fill="#455A64"/>
<path d="M83.5566 129.576L84.5361 135.222L84.1163 137.736L83.9855 140.595C83.946 141.486 84.6151 142.245 85.482 142.287L100.763 142.716C100.979 142.722 101.18 142.602 101.277 142.404C101.499 141.945 101.737 141.093 100.839 140.55C99.7748 139.905 90.7836 134.385 90.7836 134.385L90.6559 129.213L83.5566 129.576Z" fill="#FFBF9D"/>
<path d="M91.1242 142.884C91.1242 142.884 90.8565 138.486 93.8921 136.515L94.1446 136.416C94.1446 136.416 100.955 140.331 101.442 140.919C102.299 141.954 101.664 142.806 101.664 142.806L91.1242 142.884Z" fill="#B3C9DE"/>
<path d="M91.5259 141.954H82.9453V142.545H91.5259V141.954Z" fill="#B3C9DE"/>
<path d="M62.3442 84.7741C62.3442 84.7741 63.4361 90.2881 65.7083 91.1851C67.9804 92.0821 81.458 91.8991 81.458 91.8991L82.042 87.9721L69.6077 85.0441L68.3271 79.3831L61.7754 79.8301L62.3442 84.7741Z" fill="#FFBF9D"/>
<path d="M79.3408 87.8671C79.3408 87.8671 80.6731 87.3811 82.1026 87.2041C83.5322 87.0301 86.3823 87.3121 86.583 87.3541C86.7868 87.3961 89.4391 88.9591 89.4391 88.9591L91.1638 91.1401C91.1638 91.1401 90.8626 91.9501 90.1357 91.1341C89.4087 90.3181 88.8247 89.8321 88.8247 89.8321L86.9085 89.0911L88.554 90.3901L90.0232 93.5071C90.0232 93.5071 89.4483 94.1341 88.9008 93.5071C88.3533 92.8801 87.3799 91.7371 87.3799 91.7371L88.2073 93.9211C88.2073 93.9211 87.8423 94.4881 87.3799 94.0591C86.9146 93.6301 86.6317 93.2851 86.6317 93.2851C86.6317 93.2851 86.3853 93.9841 85.9382 93.4201C85.4941 92.8561 84.9709 92.4541 84.9709 92.4541L83.1338 91.8031C83.1338 91.8031 81.178 92.0461 80.2959 91.7371C79.4169 91.4341 79.3408 87.8671 79.3408 87.8671Z" fill="#FFBF9D"/>
<path d="M67.7553 87.084C67.7158 87.084 67.8709 86.394 68.4701 85.8C69.0632 85.2 69.7598 85.035 69.7598 85.074C69.781 85.119 69.1423 85.338 68.5826 85.908C68.0138 86.472 67.8009 87.102 67.7553 87.084Z" fill="#FF9A6C"/>
<path d="M80.6426 89.0461C81.0684 89.8441 81.9779 90.3631 82.8873 90.3301C83.3922 90.3121 83.8972 90.1411 84.3899 90.2431C85.0773 90.3841 85.5427 91.0081 86.1602 91.3381C86.443 91.4881 86.8597 91.5421 87.0331 91.2751C87.1487 91.0951 87.0879 90.8581 87.0118 90.6601C86.5434 89.4721 85.5123 88.5121 84.2804 88.1221" fill="#FFBF9D"/>
<path d="M84.2839 88.1221C84.2869 88.1161 84.3265 88.1251 84.4025 88.1461C84.4786 88.1641 84.5911 88.2031 84.731 88.2571C85.0108 88.3681 85.4032 88.5721 85.8199 88.9141C86.2336 89.2561 86.6686 89.7481 86.9788 90.3901C87.0488 90.5521 87.1339 90.7141 87.1674 90.9121C87.1826 91.0081 87.1856 91.1161 87.1461 91.2241C87.1096 91.3291 87.0305 91.4221 86.9271 91.4731C86.7203 91.5781 86.4921 91.5421 86.2944 91.4761C86.0906 91.4041 85.9233 91.2841 85.753 91.1641C85.4215 90.9211 85.1295 90.6511 84.801 90.4741C84.4755 90.2881 84.1166 90.2551 83.7699 90.2971C83.4231 90.3331 83.0885 90.4051 82.7631 90.3931C82.4376 90.3871 82.1426 90.3061 81.8901 90.2071C81.3821 89.9971 81.0567 89.6791 80.8742 89.4451C80.7829 89.3251 80.7221 89.2261 80.6856 89.1571C80.6491 89.0881 80.6339 89.0491 80.64 89.0461C80.6521 89.0401 80.7282 89.1871 80.9198 89.4091C81.1114 89.6281 81.4369 89.9191 81.9296 90.1081C82.173 90.1981 82.4559 90.2671 82.7631 90.2671C83.0703 90.2731 83.3957 90.1981 83.7516 90.1591C83.9311 90.1381 84.1196 90.1321 84.3113 90.1561C84.5029 90.1861 84.6945 90.2521 84.8709 90.3451C85.2238 90.5311 85.5188 90.8071 85.8412 91.0441C86.0024 91.1581 86.1697 91.2751 86.3401 91.3351C86.5104 91.3951 86.7081 91.4161 86.848 91.3441C86.991 91.2751 87.0427 91.1041 87.0092 90.9421C86.9849 90.7771 86.9028 90.6151 86.8358 90.4561C86.5438 89.8321 86.1332 89.3461 85.7378 89.0011C84.9409 88.3081 84.2626 88.1551 84.2839 88.1221Z" fill="#FF9A6C"/>
<path d="M66.2559 82.863L68.8443 81.66L69.2032 83.25L66.6787 84.459L66.2559 82.863Z" fill="#D5D5D5"/>
<path d="M41.9619 98.4661L47.9114 96.5851C47.9114 96.5851 63.1745 95.0641 71.1589 94.0891C73.4006 93.8161 75.0066 94.0951 75.5024 94.1941C78.4345 94.7761 79.42 98.2501 79.925 100.404C80.4268 102.558 81.2663 134.919 81.2663 134.919L74.4256 135.369L70.949 122.37C70.0608 119.394 69.5012 116.334 69.273 113.238L68.8989 108.117L58.685 110.07L44.231 109.962C42.2478 108.444 41.9619 98.4661 41.9619 98.4661Z" fill="#FFBF9D"/>
<path d="M68.1751 103.047C68.166 103.047 68.1629 103.191 68.1781 103.452C68.1933 103.71 68.2268 104.085 68.2785 104.547C68.3789 105.471 68.5492 106.74 68.753 108.141C68.9568 109.542 69.1606 110.808 69.3157 111.723C69.3948 112.179 69.4617 112.551 69.5134 112.806C69.5651 113.061 69.5986 113.202 69.6077 113.199C69.6168 113.196 69.6016 113.055 69.5682 112.797C69.5286 112.515 69.4769 112.149 69.4161 111.708C69.2792 110.763 69.0967 109.509 68.8929 108.12C68.6922 106.731 68.5127 105.477 68.3758 104.532C68.318 104.094 68.2694 103.728 68.2298 103.443C68.2025 103.188 68.1872 103.047 68.1751 103.047Z" fill="#455A64"/>
<path d="M66.2772 104.223C66.262 104.226 66.2985 104.433 66.4232 104.751C66.5479 105.066 66.776 105.483 67.1136 105.882C67.4513 106.278 67.8284 106.572 68.1204 106.749C68.4124 106.926 68.6132 106.998 68.6193 106.983C68.6436 106.944 67.8771 106.572 67.2201 105.789C66.56 105.015 66.3198 104.205 66.2772 104.223Z" fill="#455A64"/>
<path d="M73.1631 129.432L74.4923 135.696L74.2885 138.792L74.1547 140.595C74.1151 141.486 74.7843 142.245 75.6512 142.287L90.896 142.608C91.112 142.614 91.4587 142.359 91.553 142.161C91.775 141.702 91.9028 141.093 91.0055 140.55C89.9409 139.905 81.263 134.922 81.263 134.922L80.9771 129.183L73.1631 129.432Z" fill="#FFBF9D"/>
<path d="M81.2636 142.815C81.2636 142.815 80.8377 138.396 83.8764 136.422L84.1288 136.323C84.1288 136.323 90.9391 140.238 91.4258 140.826C92.2835 141.861 91.7147 142.881 91.7147 142.881L81.2636 142.815Z" fill="#B3C9DE"/>
<path d="M81.5097 141.864H72.9292V142.884H81.5097V141.864Z" fill="#B3C9DE"/>
<path d="M91.6478 142.716C91.6356 142.713 91.6751 142.572 91.7025 142.311C91.7238 142.056 91.742 141.663 91.5382 141.249C91.4379 141.045 91.2797 140.844 91.0637 140.679C90.8478 140.517 90.5862 140.364 90.3216 140.196C89.7832 139.866 89.1962 139.503 88.5787 139.125C87.356 138.369 86.2518 137.688 85.4154 137.172C85.0352 136.929 84.7158 136.728 84.4633 136.566C84.2413 136.419 84.1196 136.335 84.1257 136.326C84.1318 136.317 84.2626 136.383 84.4968 136.515C84.7553 136.662 85.0838 136.851 85.4732 137.076C86.2944 137.556 87.4229 138.231 88.6639 138.99C89.2844 139.371 89.8714 139.734 90.4007 140.073C90.6653 140.244 90.9178 140.4 91.1459 140.577C91.371 140.757 91.5383 140.979 91.6386 141.201C91.8424 141.651 91.8059 142.062 91.7633 142.32C91.739 142.452 91.7116 142.551 91.6903 142.617C91.669 142.683 91.6538 142.716 91.6478 142.716Z" fill="#263238"/>
<path d="M66.8152 94.224L62.9128 88.644C63.7006 84.453 64.5249 82.746 64.9568 80.661C66.1217 74.835 63.7432 68.388 63.7432 68.388L62.5691 62.931L57.6264 61.446L50.8191 61.29L44.2856 62.442L42.2964 85.659C41.0128 92.979 42.0165 97.371 41.9679 98.469L66.8152 94.224Z" fill="#B3C9DE"/>
<path d="M43.6135 110.049L67.6791 110.07L67.5301 113.025C67.5301 113.025 70.8394 115.113 76.1532 114.45C80.0679 113.961 85.2326 112.398 87.6811 111.609C88.6028 111.312 89.5974 111.336 90.5038 111.675L91.9456 112.212L90.2149 100.707C90.2149 100.707 88.8856 93.348 82.6046 93.591C76.3266 93.834 76.1897 94.362 76.1897 94.362C76.1897 94.362 74.5655 93.336 72.2903 93.399C70.0121 93.459 41.9101 95.355 41.9101 95.355C41.7733 101.256 41.7398 106.431 43.6135 110.049Z" fill="#B3C9DE"/>
<path d="M67.3838 94.116C67.3929 94.158 64.4821 94.746 60.8868 95.427C57.2916 96.111 54.3685 96.627 54.3594 96.585C54.3503 96.543 57.2581 95.955 60.8564 95.274C64.4547 94.593 67.3747 94.074 67.3838 94.116Z" fill="#263238"/>
<path d="M82.0051 110.649C81.9991 110.649 81.9838 110.589 81.9595 110.469C81.9321 110.334 81.8987 110.163 81.8591 109.953C81.774 109.482 81.6614 108.837 81.5185 108.048C81.2447 106.419 80.8706 104.202 80.4569 101.751C80.2562 100.521 80.0281 99.357 79.6631 98.343C79.3072 97.329 78.7962 96.489 78.2608 95.874C77.7255 95.256 77.1719 94.875 76.7704 94.656C76.3659 94.437 76.1195 94.359 76.1256 94.344C76.1286 94.338 76.1895 94.356 76.3051 94.395C76.4206 94.431 76.591 94.5 76.7978 94.602C77.2115 94.806 77.7863 95.184 78.343 95.802C78.8996 96.417 79.4289 97.269 79.7969 98.295C80.1771 99.318 80.4083 100.494 80.6121 101.727C81.0075 104.181 81.3633 106.401 81.628 108.033C81.7466 108.825 81.847 109.476 81.9169 109.947C81.9473 110.16 81.9686 110.334 81.9869 110.469C82.0051 110.586 82.0112 110.649 82.0051 110.649Z" fill="#263238"/>
<path d="M62.5662 62.931C62.5662 62.931 64.9721 63.204 66.6785 66.507C68.3849 69.81 70.73 79.191 70.73 79.191L62.0947 79.875L62.5662 62.931Z" fill="#B3C9DE"/>
<path d="M64.3514 82.059C64.3149 82.047 64.616 81.366 64.7773 80.196C64.8715 79.614 64.8989 78.909 64.8959 78.129C64.8807 77.349 64.8077 76.491 64.6921 75.597C64.4457 73.806 64.0838 72.207 63.8252 71.049C63.7005 70.488 63.6001 70.026 63.5211 69.675C63.4511 69.351 63.4207 69.168 63.4298 69.168C63.4389 69.165 63.4937 69.342 63.5819 69.663C63.6671 69.984 63.7918 70.449 63.9347 71.025C64.2206 72.177 64.6039 73.776 64.8503 75.576C64.9658 76.476 65.0358 77.34 65.0449 78.129C65.0419 78.915 65.0023 79.626 64.8928 80.214C64.8685 80.361 64.8442 80.499 64.8229 80.634C64.7894 80.763 64.759 80.886 64.7286 81.003C64.6708 81.234 64.6191 81.429 64.5522 81.585C64.4305 81.894 64.3606 82.065 64.3514 82.059Z" fill="#263238"/>
<path d="M66.2433 107.193C66.2829 107.175 66.6905 107.907 67.1528 108.831C67.6151 109.755 67.9588 110.52 67.9193 110.538C67.8797 110.556 67.4722 109.824 67.0098 108.9C66.5475 107.976 66.2038 107.214 66.2433 107.193Z" fill="#263238"/>
<path opacity="0.3" d="M62.0948 110.049C62.0948 110.049 61.7145 99.201 60.5435 95.745C59.3725 92.289 53.4412 90.234 53.4412 90.234L50.9531 91.461L57.3589 110.022L62.0948 110.049Z" fill="black"/>
<path opacity="0.3" d="M77.0078 94.749C77.0078 94.749 79.5233 94.641 80.6396 97.113C81.7559 99.585 84.5086 112.575 84.5086 112.575L82.0418 113.25L80.2746 100.665C80.2746 100.665 80.2472 97.128 77.0078 94.749Z" fill="black"/>
<path opacity="0.3" d="M43.7383 84.4591L44.6903 80.7151H45.983L47.3609 71.9491L44.1824 78.2041L42.7832 84.4591H43.7383Z" fill="black"/>
<path d="M44.5801 62.3881C44.5801 62.3881 40.3248 62.7151 38.5211 67.3171C36.985 71.2381 34.3145 77.1031 34.3145 77.1031L45.0302 79.9021C45.0302 79.9021 47.2659 72.8041 48.0871 68.5891C48.7989 64.9321 44.9816 62.7871 44.5801 62.3881Z" fill="#B3C9DE"/>
<path d="M36.2131 77.6011C36.2131 77.6011 34.2542 83.5591 34.3729 86.8801C34.3729 86.9131 34.3759 86.9461 34.3759 86.9791C34.4884 89.4151 36.5446 91.3201 39.0175 91.3201H57.599L56.7747 86.8981L42.9716 84.1591L43.9511 79.6231L36.2131 77.6011Z" fill="#FFBF9D"/>
<path d="M40.6963 85.74C40.6598 85.731 40.967 85.083 41.6878 84.615C42.4026 84.138 43.1266 84.102 43.1235 84.141C43.1357 84.189 42.4574 84.291 41.776 84.747C41.0917 85.188 40.7358 85.767 40.6963 85.74Z" fill="#FF9A6C"/>
<path d="M56.7777 86.8981C56.7777 86.8981 58.4719 87.2101 60.0688 87.9061C61.6656 88.6021 64.4548 90.6481 64.6404 90.8161C64.8259 90.9871 66.5992 94.2421 66.5992 94.2421L67.0159 97.5751C67.0159 97.5751 65.7476 98.0791 65.5042 96.7831C65.2639 95.4871 65.048 94.7011 65.048 94.7011L63.88 92.8261L64.5035 94.8601L64.3301 98.6941C64.3301 98.6941 63.3355 98.9941 63.1621 98.0041C62.9857 97.0141 62.6968 95.8711 62.6968 95.8711L62.1797 98.6521C62.1797 98.6521 61.4406 99.0211 61.2307 98.2861C61.0178 97.5541 60.9417 97.0231 60.9417 97.0231C60.9417 97.0231 60.2421 97.5991 60.1357 96.7381C60.0292 95.8771 59.7403 95.1361 59.7403 95.1361L58.2407 93.3301C58.2407 93.3301 56.0507 92.3821 55.3298 91.5181C54.6029 90.6601 56.7777 86.8981 56.7777 86.8981Z" fill="#FFBF9D"/>
<path d="M59.3694 92.2921C59.3815 92.2771 59.637 92.4601 60.0203 92.7931C60.2089 92.9611 60.4309 93.1681 60.6529 93.4261C60.8689 93.6841 61.0909 93.9931 61.2126 94.3771C61.386 95.1451 61.3677 95.8501 61.2734 96.3511C61.2248 96.6001 61.1579 96.7981 61.097 96.9271C61.0392 97.0561 60.9936 97.1221 60.9845 97.1191C60.9602 97.1071 61.097 96.8281 61.1609 96.3361C61.2278 95.8501 61.2248 95.1481 61.0605 94.4251C60.951 94.0741 60.7442 93.7741 60.5404 93.5191C60.3336 93.2641 60.1237 93.0511 59.9442 92.8771C59.5853 92.5201 59.3542 92.3071 59.3694 92.2921Z" fill="#FF9A6C"/>
<path d="M61.3252 91.8391C61.3404 91.8271 61.5199 92.0101 61.7724 92.3371C62.0218 92.6641 62.3412 93.1441 62.5784 93.7321C62.694 94.0261 62.7731 94.3201 62.8187 94.5901C62.8552 94.8631 62.8674 95.1121 62.843 95.3191C62.8035 95.7331 62.6909 95.9701 62.6788 95.9671C62.6514 95.9611 62.7214 95.7151 62.7305 95.3131C62.7396 95.1121 62.7183 94.8751 62.6727 94.6141C62.621 94.3561 62.5419 94.0741 62.4294 93.7891C62.1982 93.2191 61.9001 92.7421 61.6781 92.4001C61.456 92.0611 61.307 91.8541 61.3252 91.8391Z" fill="#FF9A6C"/>
<path d="M34.312 77.1031C34.312 77.1001 34.3881 77.1121 34.528 77.1451C34.6801 77.1811 34.8838 77.2291 35.1454 77.2891C35.6929 77.4211 36.4716 77.6101 37.4419 77.8471C39.4098 78.3361 42.1534 79.0201 45.3137 79.806L45.2194 79.8661C45.4688 78.6781 45.8004 77.4301 46.1258 76.1341C46.6368 74.1241 47.1509 72.2131 47.5585 70.4671C47.7531 69.5941 47.8535 68.7451 47.8444 67.9531C47.8353 67.1611 47.6953 66.4261 47.4551 65.7961C46.9593 64.5331 46.0589 63.7741 45.3837 63.4441C44.6963 63.1051 44.2491 63.1111 44.2552 63.0871C44.2552 63.0841 44.2826 63.0841 44.3343 63.0901C44.386 63.0961 44.4651 63.0991 44.5655 63.1171C44.7662 63.1531 45.0613 63.2251 45.4111 63.3901C46.1046 63.7111 47.0383 64.4671 47.5585 65.7571C47.8109 66.3961 47.9569 67.1461 47.9752 67.9501C47.9904 68.7541 47.8931 69.6151 47.7014 70.4971C47.2999 72.2521 46.792 74.1631 46.2779 76.1731C45.9525 77.4661 45.6148 78.7201 45.3685 79.8931L45.3502 79.9711L45.2742 79.9501C42.12 79.1401 39.3794 78.4411 37.4176 77.9371C36.4533 77.6851 35.6777 77.4811 35.1333 77.3371C34.8778 77.2681 34.674 77.2111 34.5219 77.1691C34.385 77.1301 34.312 77.1091 34.312 77.1031Z" fill="#263238"/>
<path d="M48.5348 53.562C45.7821 52.443 43.4613 53.931 41.6333 56.1C44.2218 57.132 47.5189 56.793 48.5348 53.562Z" fill="#B3C9DE"/>
<path d="M48.8723 53.7061C46.0588 54.6691 45.3227 57.3031 45.417 60.1201C48.045 59.1991 50.2867 56.7871 48.8723 53.7061Z" fill="#B3C9DE"/>
<path d="M63.2963 48.4411C63.2963 48.4411 64.5585 40.8151 57.2707 39.0871C53.4778 38.1871 50.6673 39.4651 48.9761 41.3101C47.1572 43.2931 46.4424 45.6331 46.4424 48.3451C46.4424 53.1271 49.7061 55.9681 49.7061 55.9681L63.2963 48.4411Z" fill="#B3C9DE"/>
<path d="M58.4176 62.8021C58.515 61.2481 58.5484 60.6121 58.5484 60.6241C58.5484 60.6241 62.168 59.9341 63.0744 55.6921C63.5246 53.5801 63.3269 50.3971 63.2904 47.5351C63.2569 44.9611 61.0183 41.4631 57.7941 41.4691L56.3615 41.3101L50.8895 43.4851C50.0987 43.5271 49.4721 44.1631 49.4478 44.9431L49.4934 61.9141L51.218 63.0751C53.5388 65.0041 57.5751 64.7101 58.4176 62.8021Z" fill="#FFBF9D"/>
<path d="M61.4498 50.631C61.4467 50.922 61.1912 51.156 60.884 51.159C60.5768 51.159 60.3305 50.925 60.3365 50.637C60.3396 50.346 60.5951 50.112 60.8992 50.109C61.2064 50.109 61.4528 50.343 61.4498 50.631Z" fill="#263238"/>
<path d="M55.8048 50.5201C55.8017 50.8111 55.5462 51.0451 55.239 51.0481C54.9318 51.0481 54.6854 50.8141 54.6915 50.5261C54.6946 50.2351 54.9501 50.0011 55.2542 49.9981C55.5645 49.9951 55.8108 50.2291 55.8048 50.5201Z" fill="#263238"/>
<path d="M62.4113 48.981C62.3383 49.05 61.9338 48.72 61.3346 48.693C60.7384 48.657 60.2822 48.939 60.2213 48.864C60.1909 48.831 60.2669 48.705 60.4647 48.576C60.6593 48.45 60.9878 48.33 61.3619 48.351C61.7361 48.372 62.0402 48.522 62.2136 48.669C62.3931 48.819 62.4478 48.951 62.4113 48.981Z" fill="#263238"/>
<path d="M56.3458 48.906C56.2789 48.978 55.85 48.678 55.2508 48.69C54.6516 48.693 54.2167 49.005 54.1528 48.933C54.1193 48.9 54.1862 48.771 54.3779 48.63C54.5634 48.489 54.8828 48.351 55.2569 48.345C55.631 48.342 55.9474 48.471 56.1299 48.606C56.3124 48.747 56.3793 48.873 56.3458 48.906Z" fill="#263238"/>
<path d="M58.4722 53.601C58.4722 53.568 58.8463 53.523 59.4546 53.475C59.6098 53.466 59.7558 53.445 59.7862 53.343C59.8288 53.235 59.771 53.07 59.7071 52.89C59.5824 52.518 59.4516 52.128 59.3147 51.72C58.7703 50.055 58.384 48.687 58.4509 48.666C58.5178 48.645 59.0166 49.977 59.5611 51.642C59.6919 52.053 59.8166 52.443 59.9352 52.818C59.9839 52.992 60.0751 53.193 59.9839 53.415C59.9383 53.526 59.8196 53.601 59.7223 53.622C59.6219 53.646 59.5368 53.643 59.4607 53.646C58.8493 53.652 58.4722 53.637 58.4722 53.601Z" fill="#263238"/>
<path d="M58.5298 60.6091C58.5298 60.6091 55.6037 60.6511 52.7993 58.7941C52.7993 58.7941 54.1103 61.8271 58.472 61.6411L58.5298 60.6091Z" fill="#FF9A6C"/>
<path d="M58.1466 55.0141C57.9458 54.7231 57.5747 54.5491 57.2006 54.5701C56.939 54.5851 56.6714 54.6961 56.501 54.8971C56.3337 55.0981 56.2851 55.3921 56.4189 55.5991C56.5679 55.8301 56.9056 55.8991 57.1945 55.8331C57.4835 55.7671 57.739 55.5931 57.9823 55.4191C58.0492 55.3711 58.1192 55.3201 58.1618 55.2541C58.2044 55.1851 58.2196 55.0951 58.1709 55.0351" fill="#FF9A6C"/>
<path d="M56.6896 53.922C56.7869 53.922 56.7565 54.561 57.2888 55.044C57.8211 55.527 58.5176 55.491 58.5176 55.581C58.5237 55.623 58.3564 55.698 58.0644 55.692C57.7785 55.689 57.3618 55.575 57.0363 55.281C56.7108 54.984 56.5831 54.606 56.574 54.342C56.5648 54.072 56.6439 53.919 56.6896 53.922Z" fill="#263238"/>
<path d="M56.5649 47.3311C56.4767 47.4751 55.9991 47.2801 55.3938 47.2231C54.7916 47.1481 54.2715 47.2321 54.2289 47.0731C54.2106 46.9981 54.3293 46.8721 54.5574 46.7641C54.7825 46.6591 55.1201 46.5871 55.482 46.6261C55.844 46.6651 56.1482 46.8091 56.3368 46.9591C56.5253 47.1121 56.6044 47.2621 56.5649 47.3311Z" fill="#263238"/>
<path d="M62.3261 47.4211C62.2135 47.5501 61.809 47.391 61.3132 47.358C60.8174 47.31 60.3916 47.403 60.3034 47.259C60.2638 47.19 60.3368 47.058 60.5284 46.941C60.717 46.824 61.0242 46.734 61.3649 46.761C61.7056 46.788 61.9945 46.926 62.1588 47.07C62.3261 47.217 62.3747 47.3581 62.3261 47.4211Z" fill="#263238"/>
<path d="M49.8885 51.4441C49.8885 51.4441 50.5516 46.9531 53.3986 44.0581C55.6099 41.8081 59.2081 41.3761 61.6901 43.9891C62.1069 44.4271 62.6878 44.7961 63.2931 46.7551C63.2931 46.7551 62.8794 40.6741 57.3862 40.0081C52.2032 39.3781 49.5539 42.7711 48.7114 45.2341C47.8871 47.6341 48.0939 51.4441 48.0939 51.4441H49.8885Z" fill="#B3C9DE"/>
<path d="M50.3632 51.0481C50.3784 50.7301 49.7913 50.6581 49.475 50.5921C48.6294 50.4181 47.0903 50.4091 46.9687 52.5451C46.8014 55.4611 49.8035 55.0261 49.8126 54.9421C49.8217 54.8761 50.3114 52.1491 50.3632 51.0481Z" fill="#FFBF9D"/>
<path d="M48.9729 53.7841C48.9607 53.7751 48.9181 53.8171 48.8299 53.8501C48.7417 53.8831 48.5957 53.9011 48.4436 53.8351C48.1364 53.7061 47.9022 53.2021 47.9174 52.6741C47.9265 52.4071 47.9965 52.1581 48.1029 51.9541C48.2064 51.7471 48.3524 51.6031 48.5136 51.5851C48.6717 51.5581 48.7782 51.6571 48.8086 51.7411C48.8451 51.8251 48.8208 51.8821 48.836 51.8881C48.8451 51.8971 48.9029 51.8431 48.8846 51.7201C48.8755 51.6601 48.8451 51.5911 48.7782 51.5311C48.7113 51.4711 48.6079 51.4351 48.4984 51.4411C48.2702 51.4441 48.0512 51.6391 47.9356 51.8641C47.8049 52.0891 47.7197 52.3681 47.7106 52.6681C47.6954 53.2561 47.9691 53.8231 48.3889 53.9701C48.5927 54.0361 48.7721 53.9821 48.8634 53.9191C48.9637 53.8561 48.982 53.7901 48.9729 53.7841Z" fill="#FF9A6C"/>
<path d="M53.8334 41.778C53.8517 41.805 53.3498 42.126 52.6442 42.768C52.2883 43.086 51.8989 43.5 51.4974 43.983C51.1051 44.475 50.7066 45.039 50.3538 45.672C50.007 46.308 49.7363 46.941 49.5264 47.532C49.3287 48.126 49.1888 48.672 49.1067 49.14C48.9364 50.073 48.9333 50.664 48.8999 50.664C48.8877 50.664 48.8847 50.517 48.8907 50.25C48.8907 50.115 48.8968 49.953 48.9181 49.764C48.9364 49.575 48.9516 49.359 48.9942 49.122C49.0611 48.648 49.1949 48.09 49.3865 47.487C49.5903 46.887 49.858 46.239 50.2108 45.597C50.5697 44.958 50.9773 44.385 51.3819 43.893C51.7955 43.407 52.2001 42.999 52.5681 42.687C52.7445 42.522 52.924 42.396 53.073 42.279C53.2221 42.159 53.3589 42.066 53.4745 41.994C53.6996 41.847 53.8274 41.769 53.8334 41.778Z" fill="#263238"/>
<path d="M61.1487 41.7361C61.1274 41.7631 60.6681 41.3491 59.78 40.9201C58.904 40.4881 57.5595 40.0831 56.057 40.1821C54.5544 40.2811 53.2738 40.8541 52.4617 41.3941C51.6405 41.9341 51.239 42.4051 51.2146 42.3811C51.2085 42.3751 51.3028 42.2551 51.4975 42.0571C51.6891 41.8591 51.9903 41.5891 52.4009 41.3041C53.2069 40.7311 54.5088 40.1251 56.0478 40.0261C57.5869 39.9271 58.9557 40.3591 59.8317 40.8241C60.2727 41.0551 60.6073 41.2831 60.8263 41.4541C61.0453 41.6221 61.1548 41.7301 61.1487 41.7361Z" fill="#263238"/>
<path d="M24.1103 67.884C24.1103 67.884 25.9931 66.978 26.4402 69.501C26.8873 72.021 29.9807 90.507 29.9807 90.507L49.201 90.357C49.201 90.357 55.92 89.655 58.6758 96.495C60.6042 101.28 59.9137 118.143 59.9137 118.143L59.5487 129.93H24.7946C24.7946 129.93 23.7209 105.222 23.5415 94.236C23.3651 83.247 22.9818 71.262 24.1103 67.884Z" fill="#455A64"/>
<path d="M60.1054 130.323C60.0629 130.323 60.0264 124.857 60.0264 118.119C60.0264 111.378 60.0629 105.912 60.1054 105.912C60.148 105.912 60.1845 111.375 60.1845 118.119C60.1845 124.857 60.148 130.323 60.1054 130.323Z" fill="#263238"/>
<path d="M48.1972 130.323C48.1547 130.323 48.1182 122.148 48.1182 112.068C48.1182 101.982 48.1547 93.8101 48.1972 93.8101C48.2398 93.8101 48.2763 101.982 48.2763 112.068C48.2763 122.148 48.2398 130.323 48.1972 130.323Z" fill="#263238"/>
</svg>
